<svg width="239" height="423" viewBox="0 0 239 423" fill="none" xmlns="http://www.w3.org/2000/svg">
<path d="M97.0339 10.883C119.297 1.77547 133.295 7.08818 137.512 10.883C133.717 18.4712 116.008 19.7388 100.829 18.4739C88.6854 17.462 93.2391 12.9916 97.0339 10.883Z" stroke="white" stroke-width="1.5"/>
<path d="M162.81 156.353C158.172 155.51 147.884 157.365 143.836 171.532C139.789 185.699 126.127 212.01 119.803 223.394C118.959 238.995 114.237 273.485 102.094 286.64C100.829 324.167 103.359 399.978 123.597 403.014C126.549 403.014 132.958 402.508 134.982 400.484M162.81 156.353C170.906 146.234 206.661 128.524 223.527 120.934M162.81 156.353C165.762 210.323 172.424 319.023 175.46 322.058M134.982 400.484C137.512 397.954 152.691 389.1 175.46 322.058M134.982 400.484C123.176 409.76 96.5277 426.794 84.3844 420.723M175.46 322.058C191.482 302.663 224.539 258.812 228.587 238.573M228.587 238.573C228.587 203.998 227.575 132.066 223.527 120.934M228.587 238.573C231.117 237.308 236.429 228.453 237.441 203.155C238.18 184.676 238.065 136.276 237.784 96.9008M223.527 120.934C227.972 117.983 237.047 109.044 237.784 96.9008M155.221 3.29593C159.015 3.29593 173.942 5.82579 203.288 15.9452C232.634 26.0647 238.284 48.8334 237.441 58.9529C237.555 69.0684 237.681 82.3701 237.784 96.9008M155.221 3.29593C158.594 7.93401 159.521 18.7281 136.247 24.7997M155.221 3.29593C153.112 2.87428 147.631 2.28398 142.571 3.29593M136.247 24.7997C163.653 18.8967 220.997 17.2102 231.116 57.6879C233.824 68.5192 233.453 78.2032 231.116 86.7158M136.247 24.7997C119.743 27.0537 106.601 35.8584 102.093 39.9789L61.6157 127.259L121.067 127.259C145.354 127.259 152.269 134.005 152.691 137.379M152.691 137.379C152.691 145.474 157.75 144.968 160.28 143.703L190.639 129.789C203.609 124.539 224.722 110.016 231.116 86.7158M152.691 137.379L160.28 118.405L162.81 113.345M231.116 86.7158C221.84 80.8346 198.228 68.8193 177.989 67.8074M177.989 67.8074C182.206 59.3745 190.639 38.967 190.639 24.7997M177.989 67.8074L172.93 84.2515M169.135 123.464C175.881 121.778 187.35 112.839 179.254 90.5761C176.303 86.3597 168.882 80.4567 162.81 90.5761C156.738 100.696 164.497 116.718 169.135 123.464Z" stroke="white" stroke-width="1.5"/>
<path d="M83.1194 227.187C98.2986 204.924 108.84 217.91 112.213 227.187C113.225 244.389 105.888 263.87 102.093 271.46C96.0217 294.735 86.9142 297.181 83.1194 295.494C76.7947 282.001 67.9402 249.449 83.1194 227.187Z" stroke="white" stroke-width="1.5"/>
<path d="M93.2386 22.2696C127.645 29.3532 144.679 16.7882 148.896 9.6203C145.86 -0.499146 122.332 0.344139 110.948 2.03071C73.5056 7.09043 83.5408 17.6315 93.2386 22.2696Z" stroke="white" stroke-width="1.5"/>
<path d="M84.3845 14.6794C82.2762 22.2689 80.3367 39.725 89.4442 48.8325L48.9664 134.848M48.9664 134.848C69.2053 130.21 110.189 127.005 112.213 151.292C114.237 175.579 86.071 187.553 71.7351 190.505M48.9664 134.848C13.5486 137.884 3.00715 159.725 2.16367 170.266M48.9664 134.848C75.2772 130.8 88.6008 136.534 91.9737 139.907C103.78 150.87 115.501 175.579 67.9401 186.71C20.3787 197.841 4.27189 180.385 2.16367 170.266M71.7351 190.505C64.9887 225.923 59.0855 284.11 65.4102 338.502C69.6266 364.643 79.5774 417.686 85.6491 420.722C69.6266 421.144 36.5698 416.168 32.522 392.894L14.813 299.289C12.7048 277.785 10.0062 230.729 16.0779 214.538M71.7351 190.505C55.7126 191.77 22.1496 198.347 16.0779 214.538M16.0779 214.538C10.1749 212.43 -0.872162 200.624 2.16367 170.266" stroke="white" stroke-width="1.5"/>
<path d="M65.4107 141.172C101.841 146.232 93.2392 163.519 84.3847 171.531C76.2891 177.603 60.7726 180.806 54.0263 181.649C25.6918 186.709 15.2351 174.482 13.5485 167.736C19.6202 144.461 50.6532 140.329 65.4107 141.172Z" stroke="white" stroke-width="1.5"/>
<path d="M118.537 408.749C110.104 404.954 93.4915 401.413 94.5034 417.604C101.671 417.182 116.513 414.82 118.537 408.749Z" stroke="white" stroke-width="1.5"/>
</svg>
