<svg width="327" height="251" viewBox="0 0 327 251" fill="none" xmlns="http://www.w3.org/2000/svg">
<rect x="0.5" y="0.5" width="326" height="250" rx="8.5" stroke="#2F61BF" stroke-dasharray="8 8"/>
<path d="M211.652 150.108C213.905 118.134 214.189 72.4104 213.51 42.7844M207.725 150.328C209.587 123.809 210.305 84.0556 209.997 54.4832M198.75 150.831L197.79 59.5021M195.384 151.019C194.352 119.531 193.891 87.8987 193.762 59.4508M188.596 150.377C187.103 133.662 185.004 99.9807 184.208 58.6406M183.604 151.679C180.126 116.324 178.66 84.749 178.387 57.8779M176.198 150.048C173.092 131.588 169.064 96.4338 168.29 56.3721M172.243 149.758C166.711 115.669 164.524 83.8249 164.222 56.3203M168.316 149.978C164.376 135.518 159.025 101.853 159.163 55.5673" stroke="#444444"/>
<path d="M227.891 10.7849L230.941 61.5774C230.949 79.9876 230.264 118.893 227.459 127.232C226.648 131.028 224.558 139.362 222.679 142.331C221.452 144.786 217.272 149.896 210.362 150.692C203.451 151.488 186.334 150.844 178.64 150.423C174.372 150.321 164.778 149.46 160.539 146.834C155.241 143.551 151.416 139.162 149.087 124.974C147.666 116.317 146.724 103.112 146.23 93.7085M144.306 54.4831L119.504 53.7541M144.306 54.4831C144.345 56.1563 144.397 57.8868 144.459 59.6444M144.306 54.4831L159.073 55.5154C168.708 56.8917 189.284 59.6444 194.514 59.6444C198.643 59.8738 207.245 59.5067 208.621 56.2036C211.144 53.4509 215.916 41.6833 214.815 16.6341M146.23 93.7085C146.076 90.782 145.965 88.2237 145.897 86.2853C145.482 80.4873 144.892 70.894 144.535 61.7089C144.522 61.3641 144.509 61.02 144.496 60.6766M146.23 93.7085L95.418 94.7408M97.4825 53.1068L119.504 53.7541M119.504 53.7541L119.504 59.6444M98.5147 77.5366L111.59 70.9991C116.82 68.2464 119.045 64.1174 119.504 62.397L119.504 59.6444M119.504 59.6444C123.893 60.3325 135.037 61.5024 144.496 60.6766M144.496 60.6766C144.483 60.3317 144.471 59.9875 144.459 59.6444M144.459 59.6444L159.073 56.2036" stroke="#444444" stroke-width="0.75"/>
<path d="M158.858 62.0343L144.755 65.8926M159.001 64.5833L144.898 68.4417M159.119 75.8277L145.497 79.1476M159.262 78.3767L145.64 81.6967M159.862 89.0826L146.154 90.8732M160.005 91.6317L146.297 93.4222M161.057 101.289L146.782 102.089M160.69 103.867L146.925 104.638M161.061 110.495L147.749 110.217M161.204 113.044C156.955 113.282 148.345 113.559 147.892 112.766M162.028 118.623C157.77 118.691 149.135 118.527 148.658 117.326M162.17 121.172C158.082 121.23 149.685 121.053 148.801 119.875M163.08 128.281C159.502 128.311 151.813 127.991 149.682 126.474M163.733 130.801C161.353 130.934 155.241 130.765 149.825 129.023M164.528 135.871C161.12 135.891 153.663 135.456 151.102 133.554M165.209 138.901C161.971 138.912 154.859 138.56 152.321 137.066M165.919 142.441C162.501 142.292 155.223 141.404 153.455 139.048M166.061 144.99C162.993 144.991 156.51 144.298 155.127 141.511M229.028 27.42C223.875 25.6861 218.266 26.1532 214.951 26.8368M229.142 29.4592C223.56 27.7151 217.96 28.2218 214.814 28.9157M213.782 40.3757C216.793 39.3547 223.889 37.9359 229.713 39.6553M213.514 42.6082C216.874 41.7382 224.842 40.3373 229.827 41.6946M213.632 53.8526C216.804 52.6521 224.597 50.5791 230.398 51.8907M213.775 56.4016C216.776 55.2107 224.326 53.049 230.513 53.9299M214.403 67.6173L230.574 64.1546M214.036 70.1949L230.717 66.7037M214.011 78.8902L231.116 73.841M214.154 81.4393L230.749 76.4186M214.073 89.1149L230.639 83.5844M214.215 91.6639L230.272 86.162M213.371 103.985L230.362 96.8965M213.485 106.024L229.995 99.4741M214.057 116.22C217.408 115.18 225.288 112.216 229.999 108.679M214.199 118.769C217.862 117.201 225.979 113.609 229.151 111.795M212.645 127.55C216.638 125.792 225.405 121.619 228.531 118.99M213.269 129.561C216.781 128.342 224.682 125.137 228.192 122.077M212.564 135.226C216.897 133.449 226.026 129.051 227.883 125.674M212.707 137.775C216.719 136.357 225.195 132.473 227.006 128.28M212.878 140.834C215.88 139.643 222.749 136.292 226.215 132.416M212.511 143.411C215.173 142.24 221.47 139.023 225.366 135.532M212.144 145.989C215.627 144.26 223.068 140.161 224.971 137.6M212.258 148.028C212.768 148 221.263 144.455 223.584 140.234" stroke="#444444" stroke-width="0.75"/>
<path d="M95.824 172.242V178.416C95.824 179.284 96.034 179.928 96.454 180.348C96.8833 180.768 97.476 180.978 98.232 180.978C98.9787 180.978 99.562 180.768 99.982 180.348C100.411 179.928 100.626 179.284 100.626 178.416V172.242H101.9V178.402C101.9 179.214 101.737 179.9 101.41 180.46C101.083 181.011 100.64 181.421 100.08 181.692C99.5293 181.963 98.9087 182.098 98.218 182.098C97.5273 182.098 96.902 181.963 96.342 181.692C95.7913 181.421 95.3527 181.011 95.026 180.46C94.7087 179.9 94.55 179.214 94.55 178.402V172.242H95.824ZM105.299 175.742C105.551 175.303 105.925 174.939 106.419 174.65C106.923 174.351 107.507 174.202 108.169 174.202C108.851 174.202 109.467 174.365 110.017 174.692C110.577 175.019 111.016 175.481 111.333 176.078C111.651 176.666 111.809 177.352 111.809 178.136C111.809 178.911 111.651 179.601 111.333 180.208C111.016 180.815 110.577 181.286 110.017 181.622C109.467 181.958 108.851 182.126 108.169 182.126C107.516 182.126 106.937 181.981 106.433 181.692C105.939 181.393 105.561 181.025 105.299 180.586V185.64H104.025V174.328H105.299V175.742ZM110.507 178.136C110.507 177.557 110.391 177.053 110.157 176.624C109.924 176.195 109.607 175.868 109.205 175.644C108.813 175.42 108.379 175.308 107.903 175.308C107.437 175.308 107.003 175.425 106.601 175.658C106.209 175.882 105.892 176.213 105.649 176.652C105.416 177.081 105.299 177.581 105.299 178.15C105.299 178.729 105.416 179.237 105.649 179.676C105.892 180.105 106.209 180.437 106.601 180.67C107.003 180.894 107.437 181.006 107.903 181.006C108.379 181.006 108.813 180.894 109.205 180.67C109.607 180.437 109.924 180.105 110.157 179.676C110.391 179.237 110.507 178.724 110.507 178.136ZM114.76 171.64V182H113.486V171.64H114.76ZM120.278 182.126C119.559 182.126 118.906 181.963 118.318 181.636C117.739 181.309 117.282 180.847 116.946 180.25C116.619 179.643 116.456 178.943 116.456 178.15C116.456 177.366 116.624 176.675 116.96 176.078C117.305 175.471 117.772 175.009 118.36 174.692C118.948 174.365 119.606 174.202 120.334 174.202C121.062 174.202 121.72 174.365 122.308 174.692C122.896 175.009 123.358 175.467 123.694 176.064C124.039 176.661 124.212 177.357 124.212 178.15C124.212 178.943 124.034 179.643 123.68 180.25C123.334 180.847 122.863 181.309 122.266 181.636C121.668 181.963 121.006 182.126 120.278 182.126ZM120.278 181.006C120.735 181.006 121.164 180.899 121.566 180.684C121.967 180.469 122.289 180.147 122.532 179.718C122.784 179.289 122.91 178.766 122.91 178.15C122.91 177.534 122.788 177.011 122.546 176.582C122.303 176.153 121.986 175.835 121.594 175.63C121.202 175.415 120.777 175.308 120.32 175.308C119.853 175.308 119.424 175.415 119.032 175.63C118.649 175.835 118.341 176.153 118.108 176.582C117.874 177.011 117.758 177.534 117.758 178.15C117.758 178.775 117.87 179.303 118.094 179.732C118.327 180.161 118.635 180.483 119.018 180.698C119.4 180.903 119.82 181.006 120.278 181.006ZM125.411 178.136C125.411 177.352 125.569 176.666 125.887 176.078C126.204 175.481 126.638 175.019 127.189 174.692C127.749 174.365 128.369 174.202 129.051 174.202C129.723 174.202 130.306 174.347 130.801 174.636C131.295 174.925 131.664 175.289 131.907 175.728V174.328H133.195V182H131.907V180.572C131.655 181.02 131.277 181.393 130.773 181.692C130.278 181.981 129.699 182.126 129.037 182.126C128.355 182.126 127.739 181.958 127.189 181.622C126.638 181.286 126.204 180.815 125.887 180.208C125.569 179.601 125.411 178.911 125.411 178.136ZM131.907 178.15C131.907 177.571 131.79 177.067 131.557 176.638C131.323 176.209 131.006 175.882 130.605 175.658C130.213 175.425 129.779 175.308 129.303 175.308C128.827 175.308 128.393 175.42 128.001 175.644C127.609 175.868 127.296 176.195 127.063 176.624C126.829 177.053 126.713 177.557 126.713 178.136C126.713 178.724 126.829 179.237 127.063 179.676C127.296 180.105 127.609 180.437 128.001 180.67C128.393 180.894 128.827 181.006 129.303 181.006C129.779 181.006 130.213 180.894 130.605 180.67C131.006 180.437 131.323 180.105 131.557 179.676C131.79 179.237 131.907 178.729 131.907 178.15ZM134.872 178.136C134.872 177.352 135.03 176.666 135.348 176.078C135.665 175.481 136.099 175.019 136.65 174.692C137.21 174.365 137.835 174.202 138.526 174.202C139.123 174.202 139.678 174.342 140.192 174.622C140.705 174.893 141.097 175.252 141.368 175.7V171.64H142.656V182H141.368V180.558C141.116 181.015 140.742 181.393 140.248 181.692C139.753 181.981 139.174 182.126 138.512 182.126C137.83 182.126 137.21 181.958 136.65 181.622C136.099 181.286 135.665 180.815 135.348 180.208C135.03 179.601 134.872 178.911 134.872 178.136ZM141.368 178.15C141.368 177.571 141.251 177.067 141.018 176.638C140.784 176.209 140.467 175.882 140.066 175.658C139.674 175.425 139.24 175.308 138.764 175.308C138.288 175.308 137.854 175.42 137.462 175.644C137.07 175.868 136.757 176.195 136.524 176.624C136.29 177.053 136.174 177.557 136.174 178.136C136.174 178.724 136.29 179.237 136.524 179.676C136.757 180.105 137.07 180.437 137.462 180.67C137.854 180.894 138.288 181.006 138.764 181.006C139.24 181.006 139.674 180.894 140.066 180.67C140.467 180.437 140.784 180.105 141.018 179.676C141.251 179.237 141.368 178.729 141.368 178.15ZM148.065 178.136C148.065 177.352 148.224 176.666 148.541 176.078C148.858 175.481 149.292 175.019 149.843 174.692C150.403 174.365 151.024 174.202 151.705 174.202C152.377 174.202 152.96 174.347 153.455 174.636C153.95 174.925 154.318 175.289 154.561 175.728V174.328H155.849V182H154.561V180.572C154.309 181.02 153.931 181.393 153.427 181.692C152.932 181.981 152.354 182.126 151.691 182.126C151.01 182.126 150.394 181.958 149.843 181.622C149.292 181.286 148.858 180.815 148.541 180.208C148.224 179.601 148.065 178.911 148.065 178.136ZM154.561 178.15C154.561 177.571 154.444 177.067 154.211 176.638C153.978 176.209 153.66 175.882 153.259 175.658C152.867 175.425 152.433 175.308 151.957 175.308C151.481 175.308 151.047 175.42 150.655 175.644C150.263 175.868 149.95 176.195 149.717 176.624C149.484 177.053 149.367 177.557 149.367 178.136C149.367 178.724 149.484 179.237 149.717 179.676C149.95 180.105 150.263 180.437 150.655 180.67C151.047 180.894 151.481 181.006 151.957 181.006C152.433 181.006 152.867 180.894 153.259 180.67C153.66 180.437 153.978 180.105 154.211 179.676C154.444 179.237 154.561 178.729 154.561 178.15ZM161.74 174.188C162.673 174.188 163.429 174.473 164.008 175.042C164.586 175.602 164.876 176.414 164.876 177.478V182H163.616V177.66C163.616 176.895 163.424 176.311 163.042 175.91C162.659 175.499 162.136 175.294 161.474 175.294C160.802 175.294 160.265 175.504 159.864 175.924C159.472 176.344 159.276 176.955 159.276 177.758V182H158.002V174.328H159.276V175.42C159.528 175.028 159.868 174.725 160.298 174.51C160.736 174.295 161.217 174.188 161.74 174.188ZM171.347 173.082C171.105 173.082 170.899 172.998 170.731 172.83C170.563 172.662 170.479 172.457 170.479 172.214C170.479 171.971 170.563 171.766 170.731 171.598C170.899 171.43 171.105 171.346 171.347 171.346C171.581 171.346 171.777 171.43 171.935 171.598C172.103 171.766 172.187 171.971 172.187 172.214C172.187 172.457 172.103 172.662 171.935 172.83C171.777 172.998 171.581 173.082 171.347 173.082ZM171.963 174.328V182H170.689V174.328H171.963ZM183.361 174.188C183.958 174.188 184.49 174.314 184.957 174.566C185.423 174.809 185.792 175.177 186.063 175.672C186.333 176.167 186.469 176.769 186.469 177.478V182H185.209V177.66C185.209 176.895 185.017 176.311 184.635 175.91C184.261 175.499 183.753 175.294 183.109 175.294C182.446 175.294 181.919 175.509 181.527 175.938C181.135 176.358 180.939 176.969 180.939 177.772V182H179.679V177.66C179.679 176.895 179.487 176.311 179.105 175.91C178.731 175.499 178.223 175.294 177.579 175.294C176.916 175.294 176.389 175.509 175.997 175.938C175.605 176.358 175.409 176.969 175.409 177.772V182H174.135V174.328H175.409V175.434C175.661 175.033 175.997 174.725 176.417 174.51C176.846 174.295 177.317 174.188 177.831 174.188C178.475 174.188 179.044 174.333 179.539 174.622C180.033 174.911 180.402 175.336 180.645 175.896C180.859 175.355 181.214 174.935 181.709 174.636C182.203 174.337 182.754 174.188 183.361 174.188ZM188.082 178.136C188.082 177.352 188.241 176.666 188.558 176.078C188.876 175.481 189.31 175.019 189.86 174.692C190.42 174.365 191.041 174.202 191.722 174.202C192.394 174.202 192.978 174.347 193.472 174.636C193.967 174.925 194.336 175.289 194.578 175.728V174.328H195.866V182H194.578V180.572C194.326 181.02 193.948 181.393 193.444 181.692C192.95 181.981 192.371 182.126 191.708 182.126C191.027 182.126 190.411 181.958 189.86 181.622C189.31 181.286 188.876 180.815 188.558 180.208C188.241 179.601 188.082 178.911 188.082 178.136ZM194.578 178.15C194.578 177.571 194.462 177.067 194.228 176.638C193.995 176.209 193.678 175.882 193.276 175.658C192.884 175.425 192.45 175.308 191.974 175.308C191.498 175.308 191.064 175.42 190.672 175.644C190.28 175.868 189.968 176.195 189.734 176.624C189.501 177.053 189.384 177.557 189.384 178.136C189.384 178.724 189.501 179.237 189.734 179.676C189.968 180.105 190.28 180.437 190.672 180.67C191.064 180.894 191.498 181.006 191.974 181.006C192.45 181.006 192.884 180.894 193.276 180.67C193.678 180.437 193.995 180.105 194.228 179.676C194.462 179.237 194.578 178.729 194.578 178.15ZM201.183 174.202C201.846 174.202 202.425 174.347 202.919 174.636C203.423 174.925 203.797 175.289 204.039 175.728V174.328H205.327V182.168C205.327 182.868 205.178 183.489 204.879 184.03C204.581 184.581 204.151 185.01 203.591 185.318C203.041 185.626 202.397 185.78 201.659 185.78C200.651 185.78 199.811 185.542 199.139 185.066C198.467 184.59 198.071 183.941 197.949 183.12H199.209C199.349 183.587 199.639 183.96 200.077 184.24C200.516 184.529 201.043 184.674 201.659 184.674C202.359 184.674 202.929 184.455 203.367 184.016C203.815 183.577 204.039 182.961 204.039 182.168V180.558C203.787 181.006 203.414 181.379 202.919 181.678C202.425 181.977 201.846 182.126 201.183 182.126C200.502 182.126 199.881 181.958 199.321 181.622C198.771 181.286 198.337 180.815 198.019 180.208C197.702 179.601 197.543 178.911 197.543 178.136C197.543 177.352 197.702 176.666 198.019 176.078C198.337 175.481 198.771 175.019 199.321 174.692C199.881 174.365 200.502 174.202 201.183 174.202ZM204.039 178.15C204.039 177.571 203.923 177.067 203.689 176.638C203.456 176.209 203.139 175.882 202.737 175.658C202.345 175.425 201.911 175.308 201.435 175.308C200.959 175.308 200.525 175.42 200.133 175.644C199.741 175.868 199.429 176.195 199.195 176.624C198.962 177.053 198.845 177.557 198.845 178.136C198.845 178.724 198.962 179.237 199.195 179.676C199.429 180.105 199.741 180.437 200.133 180.67C200.525 180.894 200.959 181.006 201.435 181.006C201.911 181.006 202.345 180.894 202.737 180.67C203.139 180.437 203.456 180.105 203.689 179.676C203.923 179.237 204.039 178.729 204.039 178.15ZM214.48 177.87C214.48 178.113 214.466 178.369 214.438 178.64H208.306C208.353 179.396 208.61 179.989 209.076 180.418C209.552 180.838 210.126 181.048 210.798 181.048C211.349 181.048 211.806 180.922 212.17 180.67C212.544 180.409 212.805 180.063 212.954 179.634H214.326C214.121 180.371 213.71 180.973 213.094 181.44C212.478 181.897 211.713 182.126 210.798 182.126C210.07 182.126 209.417 181.963 208.838 181.636C208.269 181.309 207.821 180.847 207.494 180.25C207.168 179.643 207.004 178.943 207.004 178.15C207.004 177.357 207.163 176.661 207.48 176.064C207.798 175.467 208.241 175.009 208.81 174.692C209.389 174.365 210.052 174.202 210.798 174.202C211.526 174.202 212.17 174.361 212.73 174.678C213.29 174.995 213.72 175.434 214.018 175.994C214.326 176.545 214.48 177.17 214.48 177.87ZM213.164 177.604C213.164 177.119 213.057 176.703 212.842 176.358C212.628 176.003 212.334 175.737 211.96 175.56C211.596 175.373 211.19 175.28 210.742 175.28C210.098 175.28 209.548 175.485 209.09 175.896C208.642 176.307 208.386 176.876 208.32 177.604H213.164ZM223.24 182.126C222.522 182.126 221.868 181.963 221.28 181.636C220.702 181.309 220.244 180.847 219.908 180.25C219.582 179.643 219.418 178.943 219.418 178.15C219.418 177.366 219.586 176.675 219.922 176.078C220.268 175.471 220.734 175.009 221.322 174.692C221.91 174.365 222.568 174.202 223.296 174.202C224.024 174.202 224.682 174.365 225.27 174.692C225.858 175.009 226.32 175.467 226.656 176.064C227.002 176.661 227.174 177.357 227.174 178.15C227.174 178.943 226.997 179.643 226.642 180.25C226.297 180.847 225.826 181.309 225.228 181.636C224.631 181.963 223.968 182.126 223.24 182.126ZM223.24 181.006C223.698 181.006 224.127 180.899 224.528 180.684C224.93 180.469 225.252 180.147 225.494 179.718C225.746 179.289 225.872 178.766 225.872 178.15C225.872 177.534 225.751 177.011 225.508 176.582C225.266 176.153 224.948 175.835 224.556 175.63C224.164 175.415 223.74 175.308 223.282 175.308C222.816 175.308 222.386 175.415 221.994 175.63C221.612 175.835 221.304 176.153 221.07 176.582C220.837 177.011 220.72 177.534 220.72 178.15C220.72 178.775 220.832 179.303 221.056 179.732C221.29 180.161 221.598 180.483 221.98 180.698C222.363 180.903 222.783 181.006 223.24 181.006ZM230.123 175.574C230.347 175.135 230.665 174.795 231.075 174.552C231.495 174.309 232.004 174.188 232.601 174.188V175.504H232.265C230.837 175.504 230.123 176.279 230.123 177.828V182H228.849V174.328H230.123V175.574Z" fill="#132A00"/>
<path d="M103.836 197.27V198.572H101.246V207H99.65V198.572H97.046V197.27H103.836ZM104.92 203.108C104.92 202.333 105.079 201.647 105.396 201.05C105.723 200.453 106.162 199.991 106.712 199.664C107.272 199.328 107.888 199.16 108.56 199.16C109.167 199.16 109.694 199.281 110.142 199.524C110.6 199.757 110.964 200.051 111.234 200.406V199.286H112.844V207H111.234V205.852C110.964 206.216 110.595 206.519 110.128 206.762C109.662 207.005 109.13 207.126 108.532 207.126C107.87 207.126 107.263 206.958 106.712 206.622C106.162 206.277 105.723 205.801 105.396 205.194C105.079 204.578 104.92 203.883 104.92 203.108ZM111.234 203.136C111.234 202.604 111.122 202.142 110.898 201.75C110.684 201.358 110.399 201.059 110.044 200.854C109.69 200.649 109.307 200.546 108.896 200.546C108.486 200.546 108.103 200.649 107.748 200.854C107.394 201.05 107.104 201.344 106.88 201.736C106.666 202.119 106.558 202.576 106.558 203.108C106.558 203.64 106.666 204.107 106.88 204.508C107.104 204.909 107.394 205.217 107.748 205.432C108.112 205.637 108.495 205.74 108.896 205.74C109.307 205.74 109.69 205.637 110.044 205.432C110.399 205.227 110.684 204.928 110.898 204.536C111.122 204.135 111.234 203.668 111.234 203.136ZM117.993 203.15L121.549 207H119.393L116.537 203.682V207H114.941V196.64H116.537V202.66L119.337 199.286H121.549L117.993 203.15ZM129.763 202.954C129.763 203.243 129.744 203.505 129.707 203.738H123.813C123.859 204.354 124.088 204.849 124.499 205.222C124.909 205.595 125.413 205.782 126.011 205.782C126.869 205.782 127.476 205.423 127.831 204.704H129.553C129.319 205.413 128.895 205.997 128.279 206.454C127.672 206.902 126.916 207.126 126.011 207.126C125.273 207.126 124.611 206.963 124.023 206.636C123.444 206.3 122.987 205.833 122.651 205.236C122.324 204.629 122.161 203.929 122.161 203.136C122.161 202.343 122.319 201.647 122.637 201.05C122.963 200.443 123.416 199.977 123.995 199.65C124.583 199.323 125.255 199.16 126.011 199.16C126.739 199.16 127.387 199.319 127.957 199.636C128.526 199.953 128.969 200.401 129.287 200.98C129.604 201.549 129.763 202.207 129.763 202.954ZM128.097 202.45C128.087 201.862 127.877 201.391 127.467 201.036C127.056 200.681 126.547 200.504 125.941 200.504C125.39 200.504 124.919 200.681 124.527 201.036C124.135 201.381 123.901 201.853 123.827 202.45H128.097ZM134.438 203.108C134.438 202.333 134.597 201.647 134.914 201.05C135.241 200.453 135.679 199.991 136.23 199.664C136.79 199.328 137.406 199.16 138.078 199.16C138.685 199.16 139.212 199.281 139.66 199.524C140.117 199.757 140.481 200.051 140.752 200.406V199.286H142.362V207H140.752V205.852C140.481 206.216 140.113 206.519 139.646 206.762C139.179 207.005 138.647 207.126 138.05 207.126C137.387 207.126 136.781 206.958 136.23 206.622C135.679 206.277 135.241 205.801 134.914 205.194C134.597 204.578 134.438 203.883 134.438 203.108ZM140.752 203.136C140.752 202.604 140.64 202.142 140.416 201.75C140.201 201.358 139.917 201.059 139.562 200.854C139.207 200.649 138.825 200.546 138.414 200.546C138.003 200.546 137.621 200.649 137.266 200.854C136.911 201.05 136.622 201.344 136.398 201.736C136.183 202.119 136.076 202.576 136.076 203.108C136.076 203.64 136.183 204.107 136.398 204.508C136.622 204.909 136.911 205.217 137.266 205.432C137.63 205.637 138.013 205.74 138.414 205.74C138.825 205.74 139.207 205.637 139.562 205.432C139.917 205.227 140.201 204.928 140.416 204.536C140.64 204.135 140.752 203.668 140.752 203.136ZM149.691 200.42C149.962 200.065 150.33 199.767 150.797 199.524C151.264 199.281 151.791 199.16 152.379 199.16C153.051 199.16 153.662 199.328 154.213 199.664C154.773 199.991 155.212 200.453 155.529 201.05C155.846 201.647 156.005 202.333 156.005 203.108C156.005 203.883 155.846 204.578 155.529 205.194C155.212 205.801 154.773 206.277 154.213 206.622C153.662 206.958 153.051 207.126 152.379 207.126C151.791 207.126 151.268 207.009 150.811 206.776C150.354 206.533 149.98 206.235 149.691 205.88V210.668H148.095V199.286H149.691V200.42ZM154.381 203.108C154.381 202.576 154.269 202.119 154.045 201.736C153.83 201.344 153.541 201.05 153.177 200.854C152.822 200.649 152.44 200.546 152.029 200.546C151.628 200.546 151.245 200.649 150.881 200.854C150.526 201.059 150.237 201.358 150.013 201.75C149.798 202.142 149.691 202.604 149.691 203.136C149.691 203.668 149.798 204.135 150.013 204.536C150.237 204.928 150.526 205.227 150.881 205.432C151.245 205.637 151.628 205.74 152.029 205.74C152.44 205.74 152.822 205.637 153.177 205.432C153.541 205.217 153.83 204.909 154.045 204.508C154.269 204.107 154.381 203.64 154.381 203.108ZM158.395 198.264C158.106 198.264 157.863 198.166 157.667 197.97C157.471 197.774 157.373 197.531 157.373 197.242C157.373 196.953 157.471 196.71 157.667 196.514C157.863 196.318 158.106 196.22 158.395 196.22C158.675 196.22 158.913 196.318 159.109 196.514C159.305 196.71 159.403 196.953 159.403 197.242C159.403 197.531 159.305 197.774 159.109 197.97C158.913 198.166 158.675 198.264 158.395 198.264ZM159.179 199.286V207H157.583V199.286H159.179ZM160.743 203.136C160.743 202.343 160.901 201.647 161.219 201.05C161.545 200.443 161.993 199.977 162.563 199.65C163.132 199.323 163.785 199.16 164.523 199.16C165.456 199.16 166.226 199.384 166.833 199.832C167.449 200.271 167.864 200.901 168.079 201.722H166.357C166.217 201.339 165.993 201.041 165.685 200.826C165.377 200.611 164.989 200.504 164.523 200.504C163.869 200.504 163.347 200.737 162.955 201.204C162.572 201.661 162.381 202.305 162.381 203.136C162.381 203.967 162.572 204.615 162.955 205.082C163.347 205.549 163.869 205.782 164.523 205.782C165.447 205.782 166.058 205.376 166.357 204.564H168.079C167.855 205.348 167.435 205.973 166.819 206.44C166.203 206.897 165.437 207.126 164.523 207.126C163.785 207.126 163.132 206.963 162.563 206.636C161.993 206.3 161.545 205.833 161.219 205.236C160.901 204.629 160.743 203.929 160.743 203.136ZM171.531 200.588V204.858C171.531 205.147 171.596 205.357 171.727 205.488C171.867 205.609 172.1 205.67 172.427 205.67H173.407V207H172.147C171.428 207 170.878 206.832 170.495 206.496C170.112 206.16 169.921 205.614 169.921 204.858V200.588H169.011V199.286H169.921V197.368H171.531V199.286H173.407V200.588H171.531ZM181.864 199.286V207H180.268V206.09C180.016 206.407 179.685 206.659 179.274 206.846C178.873 207.023 178.443 207.112 177.986 207.112C177.379 207.112 176.833 206.986 176.348 206.734C175.872 206.482 175.494 206.109 175.214 205.614C174.943 205.119 174.808 204.522 174.808 203.822V199.286H176.39V203.584C176.39 204.275 176.563 204.807 176.908 205.18C177.253 205.544 177.725 205.726 178.322 205.726C178.919 205.726 179.391 205.544 179.736 205.18C180.091 204.807 180.268 204.275 180.268 203.584V199.286H181.864ZM185.566 200.406C185.799 200.014 186.107 199.711 186.49 199.496C186.882 199.272 187.344 199.16 187.876 199.16V200.812H187.47C186.845 200.812 186.369 200.971 186.042 201.288C185.725 201.605 185.566 202.156 185.566 202.94V207H183.97V199.286H185.566V200.406ZM196.413 202.954C196.413 203.243 196.394 203.505 196.357 203.738H190.463C190.51 204.354 190.738 204.849 191.149 205.222C191.56 205.595 192.064 205.782 192.661 205.782C193.52 205.782 194.126 205.423 194.481 204.704H196.203C195.97 205.413 195.545 205.997 194.929 206.454C194.322 206.902 193.566 207.126 192.661 207.126C191.924 207.126 191.261 206.963 190.673 206.636C190.094 206.3 189.637 205.833 189.301 205.236C188.974 204.629 188.811 203.929 188.811 203.136C188.811 202.343 188.97 201.647 189.287 201.05C189.614 200.443 190.066 199.977 190.645 199.65C191.233 199.323 191.905 199.16 192.661 199.16C193.389 199.16 194.038 199.319 194.607 199.636C195.176 199.953 195.62 200.401 195.937 200.98C196.254 201.549 196.413 202.207 196.413 202.954ZM194.747 202.45C194.738 201.862 194.528 201.391 194.117 201.036C193.706 200.681 193.198 200.504 192.591 200.504C192.04 200.504 191.569 200.681 191.177 201.036C190.785 201.381 190.552 201.853 190.477 202.45H194.747ZM205.512 199.16C206.119 199.16 206.66 199.286 207.136 199.538C207.622 199.79 208 200.163 208.27 200.658C208.541 201.153 208.676 201.75 208.676 202.45V207H207.094V202.688C207.094 201.997 206.922 201.47 206.576 201.106C206.231 200.733 205.76 200.546 205.162 200.546C204.565 200.546 204.089 200.733 203.734 201.106C203.389 201.47 203.216 201.997 203.216 202.688V207H201.62V199.286H203.216V200.168C203.478 199.851 203.809 199.603 204.21 199.426C204.621 199.249 205.055 199.16 205.512 199.16ZM214.058 207.126C213.33 207.126 212.672 206.963 212.084 206.636C211.496 206.3 211.034 205.833 210.698 205.236C210.362 204.629 210.194 203.929 210.194 203.136C210.194 202.352 210.367 201.657 210.712 201.05C211.057 200.443 211.529 199.977 212.126 199.65C212.723 199.323 213.391 199.16 214.128 199.16C214.865 199.16 215.533 199.323 216.13 199.65C216.727 199.977 217.199 200.443 217.544 201.05C217.889 201.657 218.062 202.352 218.062 203.136C218.062 203.92 217.885 204.615 217.53 205.222C217.175 205.829 216.69 206.3 216.074 206.636C215.467 206.963 214.795 207.126 214.058 207.126ZM214.058 205.74C214.469 205.74 214.851 205.642 215.206 205.446C215.57 205.25 215.864 204.956 216.088 204.564C216.312 204.172 216.424 203.696 216.424 203.136C216.424 202.576 216.317 202.105 216.102 201.722C215.887 201.33 215.603 201.036 215.248 200.84C214.893 200.644 214.511 200.546 214.1 200.546C213.689 200.546 213.307 200.644 212.952 200.84C212.607 201.036 212.331 201.33 212.126 201.722C211.921 202.105 211.818 202.576 211.818 203.136C211.818 203.967 212.028 204.611 212.448 205.068C212.877 205.516 213.414 205.74 214.058 205.74ZM230 199.286L227.606 207H225.926L224.372 201.302L222.818 207H221.138L218.73 199.286H220.354L221.964 205.488L223.602 199.286H225.268L226.836 205.46L228.432 199.286H230Z" fill="#2F61BF"/>
<path d="M93.6639 229.084C93.1119 229.084 92.6159 228.988 92.1759 228.796C91.7439 228.596 91.4039 228.324 91.1559 227.98C90.9079 227.628 90.7799 227.224 90.7719 226.768H91.9359C91.9759 227.16 92.1359 227.492 92.4159 227.764C92.7039 228.028 93.1199 228.16 93.6639 228.16C94.1839 228.16 94.5919 228.032 94.8879 227.776C95.1919 227.512 95.3439 227.176 95.3439 226.768C95.3439 226.448 95.2559 226.188 95.0799 225.988C94.9039 225.788 94.6839 225.636 94.4199 225.532C94.1559 225.428 93.7999 225.316 93.3519 225.196C92.7999 225.052 92.3559 224.908 92.0199 224.764C91.6919 224.62 91.4079 224.396 91.1679 224.092C90.9359 223.78 90.8199 223.364 90.8199 222.844C90.8199 222.388 90.9359 221.984 91.1679 221.632C91.3999 221.28 91.7239 221.008 92.1399 220.816C92.5639 220.624 93.0479 220.528 93.5919 220.528C94.3759 220.528 95.0159 220.724 95.5119 221.116C96.0159 221.508 96.2999 222.028 96.3639 222.676H95.1639C95.1239 222.356 94.9559 222.076 94.6599 221.836C94.3639 221.588 93.9719 221.464 93.4839 221.464C93.0279 221.464 92.6559 221.584 92.3679 221.824C92.0799 222.056 91.9359 222.384 91.9359 222.808C91.9359 223.112 92.0199 223.36 92.1879 223.552C92.3639 223.744 92.5759 223.892 92.8239 223.996C93.0799 224.092 93.4359 224.204 93.8919 224.332C94.4439 224.484 94.8879 224.636 95.2239 224.788C95.5599 224.932 95.8479 225.16 96.0879 225.472C96.3279 225.776 96.4479 226.192 96.4479 226.72C96.4479 227.128 96.3399 227.512 96.1239 227.872C95.9079 228.232 95.5879 228.524 95.1639 228.748C94.7399 228.972 94.2399 229.084 93.6639 229.084ZM103.887 222.424V229H102.795V228.028C102.587 228.364 102.295 228.628 101.919 228.82C101.551 229.004 101.143 229.096 100.695 229.096C100.183 229.096 99.7229 228.992 99.3149 228.784C98.9069 228.568 98.5829 228.248 98.3429 227.824C98.1109 227.4 97.9949 226.884 97.9949 226.276V222.424H99.0749V226.132C99.0749 226.78 99.2389 227.28 99.5669 227.632C99.8949 227.976 100.343 228.148 100.911 228.148C101.495 228.148 101.955 227.968 102.291 227.608C102.627 227.248 102.795 226.724 102.795 226.036V222.424H103.887ZM106.823 223.636C107.039 223.26 107.359 222.948 107.783 222.7C108.215 222.444 108.715 222.316 109.283 222.316C109.867 222.316 110.395 222.456 110.867 222.736C111.347 223.016 111.723 223.412 111.995 223.924C112.267 224.428 112.403 225.016 112.403 225.688C112.403 226.352 112.267 226.944 111.995 227.464C111.723 227.984 111.347 228.388 110.867 228.676C110.395 228.964 109.867 229.108 109.283 229.108C108.723 229.108 108.227 228.984 107.795 228.736C107.371 228.48 107.047 228.164 106.823 227.788V232.12H105.731V222.424H106.823V223.636ZM111.287 225.688C111.287 225.192 111.187 224.76 110.987 224.392C110.787 224.024 110.515 223.744 110.171 223.552C109.835 223.36 109.463 223.264 109.055 223.264C108.655 223.264 108.283 223.364 107.939 223.564C107.603 223.756 107.331 224.04 107.123 224.416C106.923 224.784 106.823 225.212 106.823 225.7C106.823 226.196 106.923 226.632 107.123 227.008C107.331 227.376 107.603 227.66 107.939 227.86C108.283 228.052 108.655 228.148 109.055 228.148C109.463 228.148 109.835 228.052 110.171 227.86C110.515 227.66 110.787 227.376 110.987 227.008C111.187 226.632 111.287 226.192 111.287 225.688ZM114.932 223.636C115.148 223.26 115.468 222.948 115.892 222.7C116.324 222.444 116.824 222.316 117.392 222.316C117.976 222.316 118.504 222.456 118.976 222.736C119.456 223.016 119.832 223.412 120.104 223.924C120.376 224.428 120.512 225.016 120.512 225.688C120.512 226.352 120.376 226.944 120.104 227.464C119.832 227.984 119.456 228.388 118.976 228.676C118.504 228.964 117.976 229.108 117.392 229.108C116.832 229.108 116.336 228.984 115.904 228.736C115.48 228.48 115.156 228.164 114.932 227.788V232.12H113.84V222.424H114.932V223.636ZM119.396 225.688C119.396 225.192 119.296 224.76 119.096 224.392C118.896 224.024 118.624 223.744 118.28 223.552C117.944 223.36 117.572 223.264 117.164 223.264C116.764 223.264 116.392 223.364 116.048 223.564C115.712 223.756 115.44 224.04 115.232 224.416C115.032 224.784 114.932 225.212 114.932 225.7C114.932 226.196 115.032 226.632 115.232 227.008C115.44 227.376 115.712 227.66 116.048 227.86C116.392 228.052 116.764 228.148 117.164 228.148C117.572 228.148 117.944 228.052 118.28 227.86C118.624 227.66 118.896 227.376 119.096 227.008C119.296 226.632 119.396 226.192 119.396 225.688ZM124.817 229.108C124.201 229.108 123.641 228.968 123.137 228.688C122.641 228.408 122.249 228.012 121.961 227.5C121.681 226.98 121.541 226.38 121.541 225.7C121.541 225.028 121.685 224.436 121.973 223.924C122.269 223.404 122.669 223.008 123.173 222.736C123.677 222.456 124.241 222.316 124.865 222.316C125.489 222.316 126.053 222.456 126.557 222.736C127.061 223.008 127.457 223.4 127.745 223.912C128.041 224.424 128.189 225.02 128.189 225.7C128.189 226.38 128.037 226.98 127.733 227.5C127.437 228.012 127.033 228.408 126.521 228.688C126.009 228.968 125.441 229.108 124.817 229.108ZM124.817 228.148C125.209 228.148 125.577 228.056 125.921 227.872C126.265 227.688 126.541 227.412 126.749 227.044C126.965 226.676 127.073 226.228 127.073 225.7C127.073 225.172 126.969 224.724 126.761 224.356C126.553 223.988 126.281 223.716 125.945 223.54C125.609 223.356 125.245 223.264 124.853 223.264C124.453 223.264 124.085 223.356 123.749 223.54C123.421 223.716 123.157 223.988 122.957 224.356C122.757 224.724 122.657 225.172 122.657 225.7C122.657 226.236 122.753 226.688 122.945 227.056C123.145 227.424 123.409 227.7 123.737 227.884C124.065 228.06 124.425 228.148 124.817 228.148ZM130.717 223.492C130.909 223.116 131.181 222.824 131.533 222.616C131.893 222.408 132.329 222.304 132.841 222.304V223.432H132.553C131.329 223.432 130.717 224.096 130.717 225.424V229H129.625V222.424H130.717V223.492ZM135.434 223.324V227.2C135.434 227.52 135.502 227.748 135.638 227.884C135.774 228.012 136.01 228.076 136.346 228.076H137.15V229H136.166C135.558 229 135.102 228.86 134.798 228.58C134.494 228.3 134.342 227.84 134.342 227.2V223.324H133.49V222.424H134.342V220.768H135.434V222.424H137.15V223.324H135.434ZM140.801 229.108C140.297 229.108 139.845 229.024 139.445 228.856C139.045 228.68 138.729 228.44 138.497 228.136C138.265 227.824 138.137 227.468 138.113 227.068H139.241C139.273 227.396 139.425 227.664 139.697 227.872C139.977 228.08 140.341 228.184 140.789 228.184C141.205 228.184 141.533 228.092 141.773 227.908C142.013 227.724 142.133 227.492 142.133 227.212C142.133 226.924 142.005 226.712 141.749 226.576C141.493 226.432 141.097 226.292 140.561 226.156C140.073 226.028 139.673 225.9 139.361 225.772C139.057 225.636 138.793 225.44 138.569 225.184C138.353 224.92 138.245 224.576 138.245 224.152C138.245 223.816 138.345 223.508 138.545 223.228C138.745 222.948 139.029 222.728 139.397 222.568C139.765 222.4 140.185 222.316 140.657 222.316C141.385 222.316 141.973 222.5 142.421 222.868C142.869 223.236 143.109 223.74 143.141 224.38H142.049C142.025 224.036 141.885 223.76 141.629 223.552C141.381 223.344 141.045 223.24 140.621 223.24C140.229 223.24 139.917 223.324 139.685 223.492C139.453 223.66 139.337 223.88 139.337 224.152C139.337 224.368 139.405 224.548 139.541 224.692C139.685 224.828 139.861 224.94 140.069 225.028C140.285 225.108 140.581 225.2 140.957 225.304C141.429 225.432 141.813 225.56 142.109 225.688C142.405 225.808 142.657 225.992 142.865 226.24C143.081 226.488 143.193 226.812 143.201 227.212C143.201 227.572 143.101 227.896 142.901 228.184C142.701 228.472 142.417 228.7 142.049 228.868C141.689 229.028 141.273 229.108 140.801 229.108ZM145.09 229.072C144.882 229.072 144.706 229 144.562 228.856C144.418 228.712 144.346 228.536 144.346 228.328C144.346 228.12 144.418 227.944 144.562 227.8C144.706 227.656 144.882 227.584 145.09 227.584C145.29 227.584 145.458 227.656 145.594 227.8C145.738 227.944 145.81 228.12 145.81 228.328C145.81 228.536 145.738 228.712 145.594 228.856C145.458 229 145.29 229.072 145.09 229.072ZM145.09 223.936C144.882 223.936 144.706 223.864 144.562 223.72C144.418 223.576 144.346 223.4 144.346 223.192C144.346 222.984 144.418 222.808 144.562 222.664C144.706 222.52 144.882 222.448 145.09 222.448C145.29 222.448 145.458 222.52 145.594 222.664C145.738 222.808 145.81 222.984 145.81 223.192C145.81 223.4 145.738 223.576 145.594 223.72C145.458 223.864 145.29 223.936 145.09 223.936ZM156.088 223.084C156.088 223.78 155.848 224.36 155.368 224.824C154.896 225.28 154.172 225.508 153.196 225.508H151.588V229H150.496V220.636H153.196C154.14 220.636 154.856 220.864 155.344 221.32C155.84 221.776 156.088 222.364 156.088 223.084ZM153.196 224.608C153.804 224.608 154.252 224.476 154.54 224.212C154.828 223.948 154.972 223.572 154.972 223.084C154.972 222.052 154.38 221.536 153.196 221.536H151.588V224.608H153.196ZM164.021 229H162.929L158.537 222.34V229H157.445V220.624H158.537L162.929 227.272V220.624H164.021V229ZM172.219 223.06C171.987 222.572 171.651 222.196 171.211 221.932C170.771 221.66 170.259 221.524 169.675 221.524C169.091 221.524 168.563 221.66 168.091 221.932C167.627 222.196 167.259 222.58 166.987 223.084C166.723 223.58 166.591 224.156 166.591 224.812C166.591 225.468 166.723 226.044 166.987 226.54C167.259 227.036 167.627 227.42 168.091 227.692C168.563 227.956 169.091 228.088 169.675 228.088C170.491 228.088 171.163 227.844 171.691 227.356C172.219 226.868 172.527 226.208 172.615 225.376H169.279V224.488H173.779V225.328C173.715 226.016 173.499 226.648 173.131 227.224C172.763 227.792 172.279 228.244 171.679 228.58C171.079 228.908 170.411 229.072 169.675 229.072C168.899 229.072 168.191 228.892 167.551 228.532C166.911 228.164 166.403 227.656 166.027 227.008C165.659 226.36 165.475 225.628 165.475 224.812C165.475 223.996 165.659 223.264 166.027 222.616C166.403 221.96 166.911 221.452 167.551 221.092C168.191 220.724 168.899 220.54 169.675 220.54C170.563 220.54 171.347 220.76 172.027 221.2C172.715 221.64 173.215 222.26 173.527 223.06H172.219ZM176.351 227.488L175.007 230.716H174.275L175.151 227.488H176.351ZM185.013 220.636V226.816C185.013 227.504 184.801 228.056 184.377 228.472C183.953 228.88 183.393 229.084 182.697 229.084C181.993 229.084 181.429 228.876 181.005 228.46C180.581 228.036 180.369 227.46 180.369 226.732H181.461C181.469 227.14 181.573 227.472 181.773 227.728C181.981 227.984 182.289 228.112 182.697 228.112C183.105 228.112 183.409 227.992 183.609 227.752C183.809 227.504 183.909 227.192 183.909 226.816V220.636H185.013ZM192.756 223.084C192.756 223.78 192.516 224.36 192.036 224.824C191.564 225.28 190.84 225.508 189.864 225.508H188.256V229H187.164V220.636H189.864C190.808 220.636 191.524 220.864 192.012 221.32C192.508 221.776 192.756 222.364 192.756 223.084ZM189.864 224.608C190.472 224.608 190.92 224.476 191.208 224.212C191.496 223.948 191.64 223.572 191.64 223.084C191.64 222.052 191.048 221.536 189.864 221.536H188.256V224.608H189.864ZM200.449 223.06C200.217 222.572 199.881 222.196 199.441 221.932C199.001 221.66 198.489 221.524 197.905 221.524C197.321 221.524 196.793 221.66 196.321 221.932C195.857 222.196 195.489 222.58 195.217 223.084C194.953 223.58 194.821 224.156 194.821 224.812C194.821 225.468 194.953 226.044 195.217 226.54C195.489 227.036 195.857 227.42 196.321 227.692C196.793 227.956 197.321 228.088 197.905 228.088C198.721 228.088 199.393 227.844 199.921 227.356C200.449 226.868 200.757 226.208 200.845 225.376H197.509V224.488H202.009V225.328C201.945 226.016 201.729 226.648 201.361 227.224C200.993 227.792 200.509 228.244 199.909 228.58C199.309 228.908 198.641 229.072 197.905 229.072C197.129 229.072 196.421 228.892 195.781 228.532C195.141 228.164 194.633 227.656 194.257 227.008C193.889 226.36 193.705 225.628 193.705 224.812C193.705 223.996 193.889 223.264 194.257 222.616C194.633 221.96 195.141 221.452 195.781 221.092C196.421 220.724 197.129 220.54 197.905 220.54C198.793 220.54 199.577 220.76 200.257 221.2C200.945 221.64 201.445 222.26 201.757 223.06H200.449ZM204.581 227.488L203.237 230.716H202.505L203.381 227.488H204.581ZM213.243 220.636V226.816C213.243 227.504 213.031 228.056 212.607 228.472C212.183 228.88 211.623 229.084 210.927 229.084C210.223 229.084 209.659 228.876 209.235 228.46C208.811 228.036 208.599 227.46 208.599 226.732H209.691C209.699 227.14 209.803 227.472 210.003 227.728C210.211 227.984 210.519 228.112 210.927 228.112C211.335 228.112 211.639 227.992 211.839 227.752C212.039 227.504 212.139 227.192 212.139 226.816V220.636H213.243ZM220.987 223.084C220.987 223.78 220.747 224.36 220.267 224.824C219.795 225.28 219.071 225.508 218.095 225.508H216.487V229H215.395V220.636H218.095C219.039 220.636 219.755 220.864 220.243 221.32C220.739 221.776 220.987 222.364 220.987 223.084ZM218.095 224.608C218.703 224.608 219.151 224.476 219.439 224.212C219.727 223.948 219.871 223.572 219.871 223.084C219.871 222.052 219.279 221.536 218.095 221.536H216.487V224.608H218.095ZM223.436 221.524V224.32H226.484V225.22H223.436V228.1H226.844V229H222.344V220.624H226.844V221.524H223.436ZM234.832 223.06C234.6 222.572 234.264 222.196 233.824 221.932C233.384 221.66 232.872 221.524 232.288 221.524C231.704 221.524 231.176 221.66 230.704 221.932C230.24 222.196 229.872 222.58 229.6 223.084C229.336 223.58 229.204 224.156 229.204 224.812C229.204 225.468 229.336 226.044 229.6 226.54C229.872 227.036 230.24 227.42 230.704 227.692C231.176 227.956 231.704 228.088 232.288 228.088C233.104 228.088 233.776 227.844 234.304 227.356C234.832 226.868 235.14 226.208 235.228 225.376H231.892V224.488H236.392V225.328C236.328 226.016 236.112 226.648 235.744 227.224C235.376 227.792 234.892 228.244 234.292 228.58C233.692 228.908 233.024 229.072 232.288 229.072C231.512 229.072 230.804 228.892 230.164 228.532C229.524 228.164 229.016 227.656 228.64 227.008C228.272 226.36 228.088 225.628 228.088 224.812C228.088 223.996 228.272 223.264 228.64 222.616C229.016 221.96 229.524 221.452 230.164 221.092C230.804 220.724 231.512 220.54 232.288 220.54C233.176 220.54 233.96 220.76 234.64 221.2C235.328 221.64 235.828 222.26 236.14 223.06H234.832Z" fill="#6F6F6F"/>
</svg>
