<svg width="297" height="67" viewBox="0 0 297 67" fill="none" xmlns="http://www.w3.org/2000/svg">
<path d="M80.824 5.242V11.416C80.824 12.284 81.034 12.928 81.454 13.348C81.8833 13.768 82.476 13.978 83.232 13.978C83.9787 13.978 84.562 13.768 84.982 13.348C85.4113 12.928 85.626 12.284 85.626 11.416V5.242H86.9V11.402C86.9 12.214 86.7367 12.9 86.41 13.46C86.0833 14.0107 85.64 14.4213 85.08 14.692C84.5293 14.9627 83.9087 15.098 83.218 15.098C82.5273 15.098 81.902 14.9627 81.342 14.692C80.7913 14.4213 80.3527 14.0107 80.026 13.46C79.7087 12.9 79.55 12.214 79.55 11.402V5.242H80.824ZM90.2993 8.742C90.5513 8.30333 90.9246 7.93933 91.4193 7.65C91.9233 7.35133 92.5066 7.202 93.1693 7.202C93.8506 7.202 94.4666 7.36533 95.0173 7.692C95.5773 8.01867 96.0159 8.48067 96.3333 9.078C96.6506 9.666 96.8093 10.352 96.8093 11.136C96.8093 11.9107 96.6506 12.6013 96.3333 13.208C96.0159 13.8147 95.5773 14.286 95.0173 14.622C94.4666 14.958 93.8506 15.126 93.1693 15.126C92.5159 15.126 91.9373 14.9813 91.4333 14.692C90.9386 14.3933 90.5606 14.0247 90.2993 13.586V18.64H89.0253V7.328H90.2993V8.742ZM95.5073 11.136C95.5073 10.5573 95.3906 10.0533 95.1573 9.624C94.9239 9.19467 94.6066 8.868 94.2053 8.644C93.8133 8.42 93.3793 8.308 92.9033 8.308C92.4366 8.308 92.0026 8.42467 91.6013 8.658C91.2093 8.882 90.8919 9.21333 90.6493 9.652C90.4159 10.0813 90.2993 10.5807 90.2993 11.15C90.2993 11.7287 90.4159 12.2373 90.6493 12.676C90.8919 13.1053 91.2093 13.4367 91.6013 13.67C92.0026 13.894 92.4366 14.006 92.9033 14.006C93.3793 14.006 93.8133 13.894 94.2053 13.67C94.6066 13.4367 94.9239 13.1053 95.1573 12.676C95.3906 12.2373 95.5073 11.724 95.5073 11.136ZM99.7602 4.64V15H98.4862V4.64H99.7602ZM105.278 15.126C104.559 15.126 103.906 14.9627 103.318 14.636C102.739 14.3093 102.282 13.8473 101.946 13.25C101.619 12.6433 101.456 11.9433 101.456 11.15C101.456 10.366 101.624 9.67533 101.96 9.078C102.305 8.47133 102.772 8.00933 103.36 7.692C103.948 7.36533 104.606 7.202 105.334 7.202C106.062 7.202 106.72 7.36533 107.308 7.692C107.896 8.00933 108.358 8.46667 108.694 9.064C109.039 9.66133 109.212 10.3567 109.212 11.15C109.212 11.9433 109.034 12.6433 108.68 13.25C108.334 13.8473 107.863 14.3093 107.266 14.636C106.668 14.9627 106.006 15.126 105.278 15.126ZM105.278 14.006C105.735 14.006 106.164 13.8987 106.566 13.684C106.967 13.4693 107.289 13.1473 107.532 12.718C107.784 12.2887 107.91 11.766 107.91 11.15C107.91 10.534 107.788 10.0113 107.546 9.582C107.303 9.15267 106.986 8.83533 106.594 8.63C106.202 8.41533 105.777 8.308 105.32 8.308C104.853 8.308 104.424 8.41533 104.032 8.63C103.649 8.83533 103.341 9.15267 103.108 9.582C102.874 10.0113 102.758 10.534 102.758 11.15C102.758 11.7753 102.87 12.3027 103.094 12.732C103.327 13.1613 103.635 13.4833 104.018 13.698C104.4 13.9033 104.82 14.006 105.278 14.006ZM110.411 11.136C110.411 10.352 110.569 9.666 110.887 9.078C111.204 8.48067 111.638 8.01867 112.189 7.692C112.749 7.36533 113.369 7.202 114.051 7.202C114.723 7.202 115.306 7.34667 115.801 7.636C116.295 7.92533 116.664 8.28933 116.907 8.728V7.328H118.195V15H116.907V13.572C116.655 14.02 116.277 14.3933 115.773 14.692C115.278 14.9813 114.699 15.126 114.037 15.126C113.355 15.126 112.739 14.958 112.189 14.622C111.638 14.286 111.204 13.8147 110.887 13.208C110.569 12.6013 110.411 11.9107 110.411 11.136ZM116.907 11.15C116.907 10.5713 116.79 10.0673 116.557 9.638C116.323 9.20867 116.006 8.882 115.605 8.658C115.213 8.42467 114.779 8.308 114.303 8.308C113.827 8.308 113.393 8.42 113.001 8.644C112.609 8.868 112.296 9.19467 112.063 9.624C111.829 10.0533 111.713 10.5573 111.713 11.136C111.713 11.724 111.829 12.2373 112.063 12.676C112.296 13.1053 112.609 13.4367 113.001 13.67C113.393 13.894 113.827 14.006 114.303 14.006C114.779 14.006 115.213 13.894 115.605 13.67C116.006 13.4367 116.323 13.1053 116.557 12.676C116.79 12.2373 116.907 11.7287 116.907 11.15ZM119.872 11.136C119.872 10.352 120.03 9.666 120.348 9.078C120.665 8.48067 121.099 8.01867 121.65 7.692C122.21 7.36533 122.835 7.202 123.526 7.202C124.123 7.202 124.678 7.342 125.192 7.622C125.705 7.89267 126.097 8.252 126.368 8.7V4.64H127.656V15H126.368V13.558C126.116 14.0153 125.742 14.3933 125.248 14.692C124.753 14.9813 124.174 15.126 123.512 15.126C122.83 15.126 122.21 14.958 121.65 14.622C121.099 14.286 120.665 13.8147 120.348 13.208C120.03 12.6013 119.872 11.9107 119.872 11.136ZM126.368 11.15C126.368 10.5713 126.251 10.0673 126.018 9.638C125.784 9.20867 125.467 8.882 125.066 8.658C124.674 8.42467 124.24 8.308 123.764 8.308C123.288 8.308 122.854 8.42 122.462 8.644C122.07 8.868 121.757 9.19467 121.524 9.624C121.29 10.0533 121.174 10.5573 121.174 11.136C121.174 11.724 121.29 12.2373 121.524 12.676C121.757 13.1053 122.07 13.4367 122.462 13.67C122.854 13.894 123.288 14.006 123.764 14.006C124.24 14.006 124.674 13.894 125.066 13.67C125.467 13.4367 125.784 13.1053 126.018 12.676C126.251 12.2373 126.368 11.7287 126.368 11.15ZM133.065 11.136C133.065 10.352 133.224 9.666 133.541 9.078C133.858 8.48067 134.292 8.01867 134.843 7.692C135.403 7.36533 136.024 7.202 136.705 7.202C137.377 7.202 137.96 7.34667 138.455 7.636C138.95 7.92533 139.318 8.28933 139.561 8.728V7.328H140.849V15H139.561V13.572C139.309 14.02 138.931 14.3933 138.427 14.692C137.932 14.9813 137.354 15.126 136.691 15.126C136.01 15.126 135.394 14.958 134.843 14.622C134.292 14.286 133.858 13.8147 133.541 13.208C133.224 12.6013 133.065 11.9107 133.065 11.136ZM139.561 11.15C139.561 10.5713 139.444 10.0673 139.211 9.638C138.978 9.20867 138.66 8.882 138.259 8.658C137.867 8.42467 137.433 8.308 136.957 8.308C136.481 8.308 136.047 8.42 135.655 8.644C135.263 8.868 134.95 9.19467 134.717 9.624C134.484 10.0533 134.367 10.5573 134.367 11.136C134.367 11.724 134.484 12.2373 134.717 12.676C134.95 13.1053 135.263 13.4367 135.655 13.67C136.047 13.894 136.481 14.006 136.957 14.006C137.433 14.006 137.867 13.894 138.259 13.67C138.66 13.4367 138.978 13.1053 139.211 12.676C139.444 12.2373 139.561 11.7287 139.561 11.15ZM146.74 7.188C147.673 7.188 148.429 7.47267 149.008 8.042C149.586 8.602 149.876 9.414 149.876 10.478V15H148.616V10.66C148.616 9.89467 148.424 9.31133 148.042 8.91C147.659 8.49933 147.136 8.294 146.474 8.294C145.802 8.294 145.265 8.504 144.864 8.924C144.472 9.344 144.276 9.95533 144.276 10.758V15H143.002V7.328H144.276V8.42C144.528 8.028 144.868 7.72467 145.298 7.51C145.736 7.29533 146.217 7.188 146.74 7.188ZM156.347 6.082C156.105 6.082 155.899 5.998 155.731 5.83C155.563 5.662 155.479 5.45667 155.479 5.214C155.479 4.97133 155.563 4.766 155.731 4.598C155.899 4.43 156.105 4.346 156.347 4.346C156.581 4.346 156.777 4.43 156.935 4.598C157.103 4.766 157.187 4.97133 157.187 5.214C157.187 5.45667 157.103 5.662 156.935 5.83C156.777 5.998 156.581 6.082 156.347 6.082ZM156.963 7.328V15H155.689V7.328H156.963ZM168.361 7.188C168.958 7.188 169.49 7.314 169.957 7.566C170.423 7.80867 170.792 8.17733 171.063 8.672C171.333 9.16667 171.469 9.76867 171.469 10.478V15H170.209V10.66C170.209 9.89467 170.017 9.31133 169.635 8.91C169.261 8.49933 168.753 8.294 168.109 8.294C167.446 8.294 166.919 8.50867 166.527 8.938C166.135 9.358 165.939 9.96933 165.939 10.772V15H164.679V10.66C164.679 9.89467 164.487 9.31133 164.105 8.91C163.731 8.49933 163.223 8.294 162.579 8.294C161.916 8.294 161.389 8.50867 160.997 8.938C160.605 9.358 160.409 9.96933 160.409 10.772V15H159.135V7.328H160.409V8.434C160.661 8.03267 160.997 7.72467 161.417 7.51C161.846 7.29533 162.317 7.188 162.831 7.188C163.475 7.188 164.044 7.33267 164.539 7.622C165.033 7.91133 165.402 8.336 165.645 8.896C165.859 8.35467 166.214 7.93467 166.709 7.636C167.203 7.33733 167.754 7.188 168.361 7.188ZM173.082 11.136C173.082 10.352 173.241 9.666 173.558 9.078C173.876 8.48067 174.31 8.01867 174.86 7.692C175.42 7.36533 176.041 7.202 176.722 7.202C177.394 7.202 177.978 7.34667 178.472 7.636C178.967 7.92533 179.336 8.28933 179.578 8.728V7.328H180.866V15H179.578V13.572C179.326 14.02 178.948 14.3933 178.444 14.692C177.95 14.9813 177.371 15.126 176.708 15.126C176.027 15.126 175.411 14.958 174.86 14.622C174.31 14.286 173.876 13.8147 173.558 13.208C173.241 12.6013 173.082 11.9107 173.082 11.136ZM179.578 11.15C179.578 10.5713 179.462 10.0673 179.228 9.638C178.995 9.20867 178.678 8.882 178.276 8.658C177.884 8.42467 177.45 8.308 176.974 8.308C176.498 8.308 176.064 8.42 175.672 8.644C175.28 8.868 174.968 9.19467 174.734 9.624C174.501 10.0533 174.384 10.5573 174.384 11.136C174.384 11.724 174.501 12.2373 174.734 12.676C174.968 13.1053 175.28 13.4367 175.672 13.67C176.064 13.894 176.498 14.006 176.974 14.006C177.45 14.006 177.884 13.894 178.276 13.67C178.678 13.4367 178.995 13.1053 179.228 12.676C179.462 12.2373 179.578 11.7287 179.578 11.15ZM186.183 7.202C186.846 7.202 187.425 7.34667 187.919 7.636C188.423 7.92533 188.797 8.28933 189.039 8.728V7.328H190.327V15.168C190.327 15.868 190.178 16.4887 189.879 17.03C189.581 17.5807 189.151 18.01 188.591 18.318C188.041 18.626 187.397 18.78 186.659 18.78C185.651 18.78 184.811 18.542 184.139 18.066C183.467 17.59 183.071 16.9413 182.949 16.12H184.209C184.349 16.5867 184.639 16.96 185.077 17.24C185.516 17.5293 186.043 17.674 186.659 17.674C187.359 17.674 187.929 17.4547 188.367 17.016C188.815 16.5773 189.039 15.9613 189.039 15.168V13.558C188.787 14.006 188.414 14.3793 187.919 14.678C187.425 14.9767 186.846 15.126 186.183 15.126C185.502 15.126 184.881 14.958 184.321 14.622C183.771 14.286 183.337 13.8147 183.019 13.208C182.702 12.6013 182.543 11.9107 182.543 11.136C182.543 10.352 182.702 9.666 183.019 9.078C183.337 8.48067 183.771 8.01867 184.321 7.692C184.881 7.36533 185.502 7.202 186.183 7.202ZM189.039 11.15C189.039 10.5713 188.923 10.0673 188.689 9.638C188.456 9.20867 188.139 8.882 187.737 8.658C187.345 8.42467 186.911 8.308 186.435 8.308C185.959 8.308 185.525 8.42 185.133 8.644C184.741 8.868 184.429 9.19467 184.195 9.624C183.962 10.0533 183.845 10.5573 183.845 11.136C183.845 11.724 183.962 12.2373 184.195 12.676C184.429 13.1053 184.741 13.4367 185.133 13.67C185.525 13.894 185.959 14.006 186.435 14.006C186.911 14.006 187.345 13.894 187.737 13.67C188.139 13.4367 188.456 13.1053 188.689 12.676C188.923 12.2373 189.039 11.7287 189.039 11.15ZM199.48 10.87C199.48 11.1127 199.466 11.3693 199.438 11.64H193.306C193.353 12.396 193.61 12.9887 194.076 13.418C194.552 13.838 195.126 14.048 195.798 14.048C196.349 14.048 196.806 13.922 197.17 13.67C197.544 13.4087 197.805 13.0633 197.954 12.634H199.326C199.121 13.3713 198.71 13.9733 198.094 14.44C197.478 14.8973 196.713 15.126 195.798 15.126C195.07 15.126 194.417 14.9627 193.838 14.636C193.269 14.3093 192.821 13.8473 192.494 13.25C192.168 12.6433 192.004 11.9433 192.004 11.15C192.004 10.3567 192.163 9.66133 192.48 9.064C192.798 8.46667 193.241 8.00933 193.81 7.692C194.389 7.36533 195.052 7.202 195.798 7.202C196.526 7.202 197.17 7.36067 197.73 7.678C198.29 7.99533 198.72 8.434 199.018 8.994C199.326 9.54467 199.48 10.17 199.48 10.87ZM198.164 10.604C198.164 10.1187 198.057 9.70333 197.842 9.358C197.628 9.00333 197.334 8.73733 196.96 8.56C196.596 8.37333 196.19 8.28 195.742 8.28C195.098 8.28 194.548 8.48533 194.09 8.896C193.642 9.30667 193.386 9.876 193.32 10.604H198.164ZM208.24 15.126C207.522 15.126 206.868 14.9627 206.28 14.636C205.702 14.3093 205.244 13.8473 204.908 13.25C204.582 12.6433 204.418 11.9433 204.418 11.15C204.418 10.366 204.586 9.67533 204.922 9.078C205.268 8.47133 205.734 8.00933 206.322 7.692C206.91 7.36533 207.568 7.202 208.296 7.202C209.024 7.202 209.682 7.36533 210.27 7.692C210.858 8.00933 211.32 8.46667 211.656 9.064C212.002 9.66133 212.174 10.3567 212.174 11.15C212.174 11.9433 211.997 12.6433 211.642 13.25C211.297 13.8473 210.826 14.3093 210.228 14.636C209.631 14.9627 208.968 15.126 208.24 15.126ZM208.24 14.006C208.698 14.006 209.127 13.8987 209.528 13.684C209.93 13.4693 210.252 13.1473 210.494 12.718C210.746 12.2887 210.872 11.766 210.872 11.15C210.872 10.534 210.751 10.0113 210.508 9.582C210.266 9.15267 209.948 8.83533 209.556 8.63C209.164 8.41533 208.74 8.308 208.282 8.308C207.816 8.308 207.386 8.41533 206.994 8.63C206.612 8.83533 206.304 9.15267 206.07 9.582C205.837 10.0113 205.72 10.534 205.72 11.15C205.72 11.7753 205.832 12.3027 206.056 12.732C206.29 13.1613 206.598 13.4833 206.98 13.698C207.363 13.9033 207.783 14.006 208.24 14.006ZM215.123 8.574C215.347 8.13533 215.665 7.79467 216.075 7.552C216.495 7.30933 217.004 7.188 217.601 7.188V8.504H217.265C215.837 8.504 215.123 9.27867 215.123 10.828V15H213.849V7.328H215.123V8.574Z" fill="#132A00"/>
<path d="M79.336 30.27V31.572H76.746V40H75.15V31.572H72.546V30.27H79.336ZM80.4203 36.108C80.4203 35.3333 80.579 34.6473 80.8963 34.05C81.223 33.4527 81.6617 32.9907 82.2123 32.664C82.7723 32.328 83.3883 32.16 84.0603 32.16C84.667 32.16 85.1943 32.2813 85.6423 32.524C86.0997 32.7573 86.4637 33.0513 86.7343 33.406V32.286H88.3443V40H86.7343V38.852C86.4637 39.216 86.095 39.5193 85.6283 39.762C85.1617 40.0047 84.6297 40.126 84.0323 40.126C83.3697 40.126 82.763 39.958 82.2123 39.622C81.6617 39.2767 81.223 38.8007 80.8963 38.194C80.579 37.578 80.4203 36.8827 80.4203 36.108ZM86.7343 36.136C86.7343 35.604 86.6223 35.142 86.3983 34.75C86.1837 34.358 85.899 34.0593 85.5443 33.854C85.1897 33.6487 84.807 33.546 84.3963 33.546C83.9857 33.546 83.603 33.6487 83.2483 33.854C82.8937 34.05 82.6043 34.344 82.3803 34.736C82.1657 35.1187 82.0583 35.576 82.0583 36.108C82.0583 36.64 82.1657 37.1067 82.3803 37.508C82.6043 37.9093 82.8937 38.2173 83.2483 38.432C83.6123 38.6373 83.995 38.74 84.3963 38.74C84.807 38.74 85.1897 38.6373 85.5443 38.432C85.899 38.2267 86.1837 37.928 86.3983 37.536C86.6223 37.1347 86.7343 36.668 86.7343 36.136ZM93.4926 36.15L97.0486 40H94.8926L92.0366 36.682V40H90.4406V29.64H92.0366V35.66L94.8366 32.286H97.0486L93.4926 36.15ZM105.263 35.954C105.263 36.2433 105.244 36.5047 105.207 36.738H99.3126C99.3592 37.354 99.5879 37.8487 99.9986 38.222C100.409 38.5953 100.913 38.782 101.511 38.782C102.369 38.782 102.976 38.4227 103.331 37.704H105.053C104.819 38.4133 104.395 38.9967 103.779 39.454C103.172 39.902 102.416 40.126 101.511 40.126C100.773 40.126 100.111 39.9627 99.5226 39.636C98.9439 39.3 98.4866 38.8333 98.1506 38.236C97.8239 37.6293 97.6606 36.9293 97.6606 36.136C97.6606 35.3427 97.8192 34.6473 98.1366 34.05C98.4632 33.4433 98.9159 32.9767 99.4946 32.65C100.083 32.3233 100.755 32.16 101.511 32.16C102.239 32.16 102.887 32.3187 103.457 32.636C104.026 32.9533 104.469 33.4013 104.787 33.98C105.104 34.5493 105.263 35.2073 105.263 35.954ZM103.597 35.45C103.587 34.862 103.377 34.3907 102.967 34.036C102.556 33.6813 102.047 33.504 101.441 33.504C100.89 33.504 100.419 33.6813 100.027 34.036C99.6346 34.3813 99.4012 34.8527 99.3266 35.45H103.597ZM109.938 36.108C109.938 35.3333 110.097 34.6473 110.414 34.05C110.741 33.4527 111.179 32.9907 111.73 32.664C112.29 32.328 112.906 32.16 113.578 32.16C114.185 32.16 114.712 32.2813 115.16 32.524C115.617 32.7573 115.981 33.0513 116.252 33.406V32.286H117.862V40H116.252V38.852C115.981 39.216 115.613 39.5193 115.146 39.762C114.679 40.0047 114.147 40.126 113.55 40.126C112.887 40.126 112.281 39.958 111.73 39.622C111.179 39.2767 110.741 38.8007 110.414 38.194C110.097 37.578 109.938 36.8827 109.938 36.108ZM116.252 36.136C116.252 35.604 116.14 35.142 115.916 34.75C115.701 34.358 115.417 34.0593 115.062 33.854C114.707 33.6487 114.325 33.546 113.914 33.546C113.503 33.546 113.121 33.6487 112.766 33.854C112.411 34.05 112.122 34.344 111.898 34.736C111.683 35.1187 111.576 35.576 111.576 36.108C111.576 36.64 111.683 37.1067 111.898 37.508C112.122 37.9093 112.411 38.2173 112.766 38.432C113.13 38.6373 113.513 38.74 113.914 38.74C114.325 38.74 114.707 38.6373 115.062 38.432C115.417 38.2267 115.701 37.928 115.916 37.536C116.14 37.1347 116.252 36.668 116.252 36.136ZM125.191 33.42C125.462 33.0653 125.83 32.7667 126.297 32.524C126.764 32.2813 127.291 32.16 127.879 32.16C128.551 32.16 129.162 32.328 129.713 32.664C130.273 32.9907 130.712 33.4527 131.029 34.05C131.346 34.6473 131.505 35.3333 131.505 36.108C131.505 36.8827 131.346 37.578 131.029 38.194C130.712 38.8007 130.273 39.2767 129.713 39.622C129.162 39.958 128.551 40.126 127.879 40.126C127.291 40.126 126.768 40.0093 126.311 39.776C125.854 39.5333 125.48 39.2347 125.191 38.88V43.668H123.595V32.286H125.191V33.42ZM129.881 36.108C129.881 35.576 129.769 35.1187 129.545 34.736C129.33 34.344 129.041 34.05 128.677 33.854C128.322 33.6487 127.94 33.546 127.529 33.546C127.128 33.546 126.745 33.6487 126.381 33.854C126.026 34.0593 125.737 34.358 125.513 34.75C125.298 35.142 125.191 35.604 125.191 36.136C125.191 36.668 125.298 37.1347 125.513 37.536C125.737 37.928 126.026 38.2267 126.381 38.432C126.745 38.6373 127.128 38.74 127.529 38.74C127.94 38.74 128.322 38.6373 128.677 38.432C129.041 38.2173 129.33 37.9093 129.545 37.508C129.769 37.1067 129.881 36.64 129.881 36.108ZM133.895 31.264C133.606 31.264 133.363 31.166 133.167 30.97C132.971 30.774 132.873 30.5313 132.873 30.242C132.873 29.9527 132.971 29.71 133.167 29.514C133.363 29.318 133.606 29.22 133.895 29.22C134.175 29.22 134.413 29.318 134.609 29.514C134.805 29.71 134.903 29.9527 134.903 30.242C134.903 30.5313 134.805 30.774 134.609 30.97C134.413 31.166 134.175 31.264 133.895 31.264ZM134.679 32.286V40H133.083V32.286H134.679ZM136.243 36.136C136.243 35.3427 136.401 34.6473 136.719 34.05C137.045 33.4433 137.493 32.9767 138.063 32.65C138.632 32.3233 139.285 32.16 140.023 32.16C140.956 32.16 141.726 32.384 142.333 32.832C142.949 33.2707 143.364 33.9007 143.579 34.722H141.857C141.717 34.3393 141.493 34.0407 141.185 33.826C140.877 33.6113 140.489 33.504 140.023 33.504C139.369 33.504 138.847 33.7373 138.455 34.204C138.072 34.6613 137.881 35.3053 137.881 36.136C137.881 36.9667 138.072 37.6153 138.455 38.082C138.847 38.5487 139.369 38.782 140.023 38.782C140.947 38.782 141.558 38.376 141.857 37.564H143.579C143.355 38.348 142.935 38.9733 142.319 39.44C141.703 39.8973 140.937 40.126 140.023 40.126C139.285 40.126 138.632 39.9627 138.063 39.636C137.493 39.3 137.045 38.8333 136.719 38.236C136.401 37.6293 136.243 36.9293 136.243 36.136ZM147.031 33.588V37.858C147.031 38.1473 147.096 38.3573 147.227 38.488C147.367 38.6093 147.6 38.67 147.927 38.67H148.907V40H147.647C146.928 40 146.378 39.832 145.995 39.496C145.612 39.16 145.421 38.614 145.421 37.858V33.588H144.511V32.286H145.421V30.368H147.031V32.286H148.907V33.588H147.031ZM157.364 32.286V40H155.768V39.09C155.516 39.4073 155.185 39.6593 154.774 39.846C154.373 40.0233 153.943 40.112 153.486 40.112C152.879 40.112 152.333 39.986 151.848 39.734C151.372 39.482 150.994 39.1087 150.714 38.614C150.443 38.1193 150.308 37.522 150.308 36.822V32.286H151.89V36.584C151.89 37.2747 152.063 37.8067 152.408 38.18C152.753 38.544 153.225 38.726 153.822 38.726C154.419 38.726 154.891 38.544 155.236 38.18C155.591 37.8067 155.768 37.2747 155.768 36.584V32.286H157.364ZM161.066 33.406C161.299 33.014 161.607 32.7107 161.99 32.496C162.382 32.272 162.844 32.16 163.376 32.16V33.812H162.97C162.345 33.812 161.869 33.9707 161.542 34.288C161.225 34.6053 161.066 35.156 161.066 35.94V40H159.47V32.286H161.066V33.406ZM171.913 35.954C171.913 36.2433 171.894 36.5047 171.857 36.738H165.963C166.01 37.354 166.238 37.8487 166.649 38.222C167.06 38.5953 167.564 38.782 168.161 38.782C169.02 38.782 169.626 38.4227 169.981 37.704H171.703C171.47 38.4133 171.045 38.9967 170.429 39.454C169.822 39.902 169.066 40.126 168.161 40.126C167.424 40.126 166.761 39.9627 166.173 39.636C165.594 39.3 165.137 38.8333 164.801 38.236C164.474 37.6293 164.311 36.9293 164.311 36.136C164.311 35.3427 164.47 34.6473 164.787 34.05C165.114 33.4433 165.566 32.9767 166.145 32.65C166.733 32.3233 167.405 32.16 168.161 32.16C168.889 32.16 169.538 32.3187 170.107 32.636C170.676 32.9533 171.12 33.4013 171.437 33.98C171.754 34.5493 171.913 35.2073 171.913 35.954ZM170.247 35.45C170.238 34.862 170.028 34.3907 169.617 34.036C169.206 33.6813 168.698 33.504 168.091 33.504C167.54 33.504 167.069 33.6813 166.677 34.036C166.285 34.3813 166.052 34.8527 165.977 35.45H170.247ZM181.012 32.16C181.619 32.16 182.16 32.286 182.636 32.538C183.122 32.79 183.5 33.1633 183.77 33.658C184.041 34.1527 184.176 34.75 184.176 35.45V40H182.594V35.688C182.594 34.9973 182.422 34.47 182.076 34.106C181.731 33.7327 181.26 33.546 180.662 33.546C180.065 33.546 179.589 33.7327 179.234 34.106C178.889 34.47 178.716 34.9973 178.716 35.688V40H177.12V32.286H178.716V33.168C178.978 32.8507 179.309 32.6033 179.71 32.426C180.121 32.2487 180.555 32.16 181.012 32.16ZM189.558 40.126C188.83 40.126 188.172 39.9627 187.584 39.636C186.996 39.3 186.534 38.8333 186.198 38.236C185.862 37.6293 185.694 36.9293 185.694 36.136C185.694 35.352 185.867 34.6567 186.212 34.05C186.557 33.4433 187.029 32.9767 187.626 32.65C188.223 32.3233 188.891 32.16 189.628 32.16C190.365 32.16 191.033 32.3233 191.63 32.65C192.227 32.9767 192.699 33.4433 193.044 34.05C193.389 34.6567 193.562 35.352 193.562 36.136C193.562 36.92 193.385 37.6153 193.03 38.222C192.675 38.8287 192.19 39.3 191.574 39.636C190.967 39.9627 190.295 40.126 189.558 40.126ZM189.558 38.74C189.969 38.74 190.351 38.642 190.706 38.446C191.07 38.25 191.364 37.956 191.588 37.564C191.812 37.172 191.924 36.696 191.924 36.136C191.924 35.576 191.817 35.1047 191.602 34.722C191.387 34.33 191.103 34.036 190.748 33.84C190.393 33.644 190.011 33.546 189.6 33.546C189.189 33.546 188.807 33.644 188.452 33.84C188.107 34.036 187.831 34.33 187.626 34.722C187.421 35.1047 187.318 35.576 187.318 36.136C187.318 36.9667 187.528 37.6107 187.948 38.068C188.377 38.516 188.914 38.74 189.558 38.74ZM205.5 32.286L203.106 40H201.426L199.872 34.302L198.318 40H196.638L194.23 32.286H195.854L197.464 38.488L199.102 32.286H200.768L202.336 38.46L203.932 32.286H205.5Z" fill="#2F61BF"/>
<path d="M213.935 29.458H223.945C224.236 29.458 224.472 29.6944 224.472 29.9853V36.5708C224.472 36.8617 224.236 37.0981 223.945 37.0981H213.935C213.645 37.0981 213.408 36.8617 213.408 36.5708V29.9853C213.408 29.6944 213.645 29.458 213.935 29.458Z" fill="white"/>
<path d="M223.946 37.6233H213.936C213.355 37.6233 212.882 37.1506 212.882 36.5688V29.9832C212.882 29.4014 213.355 28.9287 213.936 28.9287H223.946C224.528 28.9287 225 29.4014 225 29.9832V36.5688C225 37.1506 224.528 37.6233 223.946 37.6233ZM213.936 29.9852V36.5708H223.946V29.9852H213.936Z" fill="#333333"/>
<path d="M213.408 33.4092H224.208V34.4637H213.408V33.4092Z" fill="#333333"/>
<path d="M210.918 33.6598L220.186 31.1771C220.467 31.1024 220.756 31.268 220.831 31.5488C220.831 31.5508 220.831 31.5508 220.833 31.5529L222.607 38.4031C222.679 38.6838 222.512 38.9687 222.233 39.0434L212.965 41.5261C212.684 41.6009 212.395 41.4352 212.32 41.1544C212.32 41.1524 212.32 41.1524 212.318 41.1504L210.544 34.3002C210.472 34.0194 210.637 33.7346 210.918 33.6598Z" fill="white"/>
<path d="M212.825 42.0719C212.643 42.0719 212.461 42.0234 212.3 41.9305C212.055 41.7891 211.882 41.5628 211.809 41.2901L210.033 34.4318C209.89 33.8743 210.225 33.2985 210.781 33.1511L220.049 30.6683C220.322 30.5956 220.604 30.632 220.849 30.7734C221.093 30.9148 221.267 31.1411 221.34 31.4138L223.115 38.2721C223.259 38.8296 222.926 39.4053 222.368 39.5528L213.1 42.0355C213.009 42.0598 212.918 42.0719 212.825 42.0719ZM211.053 34.1692L212.827 41.0194L222.095 38.5367L220.322 31.6865L211.053 34.1692Z" fill="#333333"/>
<path d="M211.047 34.167L220.335 31.6943L221.606 36.5204L212.322 38.997L211.047 34.167Z" fill="#8CAAFF"/>
<path d="M212.237 38.8838C212.821 36.9727 213.528 35.8718 214.354 35.5829C215.183 35.292 216.193 35.9445 217.389 37.5404" fill="white"/>
<path d="M212.237 39.4111C212.187 39.4111 212.134 39.403 212.084 39.3888C211.805 39.304 211.649 39.0091 211.734 38.7303C212.376 36.6294 213.176 35.4375 214.18 35.086C215.261 34.7082 216.447 35.4072 217.811 37.2233C217.984 37.4556 217.938 37.7869 217.706 37.9606C217.473 38.1343 217.142 38.0879 216.968 37.8556C215.962 36.5122 215.096 35.8819 214.53 36.0799C214.079 36.2375 213.401 36.8799 212.742 39.0373C212.669 39.2656 212.461 39.4111 212.237 39.4111Z" fill="#333333"/>
<path d="M216.043 38.0049C216.73 36.3989 217.429 35.4696 218.142 35.2192C218.855 34.9687 219.865 35.3747 221.172 36.4353" fill="white"/>
<path d="M216.043 38.5323C215.974 38.5323 215.904 38.5181 215.837 38.4898C215.57 38.3767 215.445 38.0656 215.558 37.799C216.312 36.0334 217.1 35.0274 217.966 34.7223C218.873 34.4052 220.031 34.8314 221.503 36.0273C221.73 36.2111 221.764 36.5424 221.58 36.7687C221.396 36.9949 221.065 37.0293 220.839 36.8455C219.332 35.6233 218.611 35.6132 218.314 35.7182C217.997 35.8293 217.342 36.302 216.526 38.2131C216.443 38.4131 216.249 38.5323 216.043 38.5323Z" fill="#333333"/>
<path d="M211.828 38.9641L221.75 36.3057L222.023 37.3242L212.101 39.9827L211.828 38.9641Z" fill="#333333"/>
<path d="M78.6639 62.084C78.1119 62.084 77.6159 61.988 77.1759 61.796C76.7439 61.596 76.4039 61.324 76.1559 60.98C75.9079 60.628 75.7799 60.224 75.7719 59.768H76.9359C76.9759 60.16 77.1359 60.492 77.4159 60.764C77.7039 61.028 78.1199 61.16 78.6639 61.16C79.1839 61.16 79.5919 61.032 79.8879 60.776C80.1919 60.512 80.3439 60.176 80.3439 59.768C80.3439 59.448 80.2559 59.188 80.0799 58.988C79.9039 58.788 79.6839 58.636 79.4199 58.532C79.1559 58.428 78.7999 58.316 78.3519 58.196C77.7999 58.052 77.3559 57.908 77.0199 57.764C76.6919 57.62 76.4079 57.396 76.1679 57.092C75.9359 56.78 75.8199 56.364 75.8199 55.844C75.8199 55.388 75.9359 54.984 76.1679 54.632C76.3999 54.28 76.7239 54.008 77.1399 53.816C77.5639 53.624 78.0479 53.528 78.5919 53.528C79.3759 53.528 80.0159 53.724 80.5119 54.116C81.0159 54.508 81.2999 55.028 81.3639 55.676H80.1639C80.1239 55.356 79.9559 55.076 79.6599 54.836C79.3639 54.588 78.9719 54.464 78.4839 54.464C78.0279 54.464 77.6559 54.584 77.3679 54.824C77.0799 55.056 76.9359 55.384 76.9359 55.808C76.9359 56.112 77.0199 56.36 77.1879 56.552C77.3639 56.744 77.5759 56.892 77.8239 56.996C78.0799 57.092 78.4359 57.204 78.8919 57.332C79.4439 57.484 79.8879 57.636 80.2239 57.788C80.5599 57.932 80.8479 58.16 81.0879 58.472C81.3279 58.776 81.4479 59.192 81.4479 59.72C81.4479 60.128 81.3399 60.512 81.1239 60.872C80.9079 61.232 80.5879 61.524 80.1639 61.748C79.7399 61.972 79.2399 62.084 78.6639 62.084ZM88.8869 55.424V62H87.7949V61.028C87.5869 61.364 87.2949 61.628 86.9189 61.82C86.5509 62.004 86.1429 62.096 85.6949 62.096C85.1829 62.096 84.7229 61.992 84.3149 61.784C83.9069 61.568 83.5829 61.248 83.3429 60.824C83.1109 60.4 82.9949 59.884 82.9949 59.276V55.424H84.0749V59.132C84.0749 59.78 84.2389 60.28 84.5669 60.632C84.8949 60.976 85.3429 61.148 85.9109 61.148C86.4949 61.148 86.9549 60.968 87.2909 60.608C87.6269 60.248 87.7949 59.724 87.7949 59.036V55.424H88.8869ZM91.8226 56.636C92.0386 56.26 92.3586 55.948 92.7826 55.7C93.2146 55.444 93.7146 55.316 94.2826 55.316C94.8666 55.316 95.3946 55.456 95.8666 55.736C96.3466 56.016 96.7226 56.412 96.9946 56.924C97.2666 57.428 97.4026 58.016 97.4026 58.688C97.4026 59.352 97.2666 59.944 96.9946 60.464C96.7226 60.984 96.3466 61.388 95.8666 61.676C95.3946 61.964 94.8666 62.108 94.2826 62.108C93.7226 62.108 93.2266 61.984 92.7946 61.736C92.3706 61.48 92.0466 61.164 91.8226 60.788V65.12H90.7306V55.424H91.8226V56.636ZM96.2866 58.688C96.2866 58.192 96.1866 57.76 95.9866 57.392C95.7866 57.024 95.5146 56.744 95.1706 56.552C94.8346 56.36 94.4626 56.264 94.0546 56.264C93.6546 56.264 93.2826 56.364 92.9386 56.564C92.6026 56.756 92.3306 57.04 92.1226 57.416C91.9226 57.784 91.8226 58.212 91.8226 58.7C91.8226 59.196 91.9226 59.632 92.1226 60.008C92.3306 60.376 92.6026 60.66 92.9386 60.86C93.2826 61.052 93.6546 61.148 94.0546 61.148C94.4626 61.148 94.8346 61.052 95.1706 60.86C95.5146 60.66 95.7866 60.376 95.9866 60.008C96.1866 59.632 96.2866 59.192 96.2866 58.688ZM99.932 56.636C100.148 56.26 100.468 55.948 100.892 55.7C101.324 55.444 101.824 55.316 102.392 55.316C102.976 55.316 103.504 55.456 103.976 55.736C104.456 56.016 104.832 56.412 105.104 56.924C105.376 57.428 105.512 58.016 105.512 58.688C105.512 59.352 105.376 59.944 105.104 60.464C104.832 60.984 104.456 61.388 103.976 61.676C103.504 61.964 102.976 62.108 102.392 62.108C101.832 62.108 101.336 61.984 100.904 61.736C100.48 61.48 100.156 61.164 99.932 60.788V65.12H98.84V55.424H99.932V56.636ZM104.396 58.688C104.396 58.192 104.296 57.76 104.096 57.392C103.896 57.024 103.624 56.744 103.28 56.552C102.944 56.36 102.572 56.264 102.164 56.264C101.764 56.264 101.392 56.364 101.048 56.564C100.712 56.756 100.44 57.04 100.232 57.416C100.032 57.784 99.932 58.212 99.932 58.7C99.932 59.196 100.032 59.632 100.232 60.008C100.44 60.376 100.712 60.66 101.048 60.86C101.392 61.052 101.764 61.148 102.164 61.148C102.572 61.148 102.944 61.052 103.28 60.86C103.624 60.66 103.896 60.376 104.096 60.008C104.296 59.632 104.396 59.192 104.396 58.688ZM109.817 62.108C109.201 62.108 108.641 61.968 108.137 61.688C107.641 61.408 107.249 61.012 106.961 60.5C106.681 59.98 106.541 59.38 106.541 58.7C106.541 58.028 106.685 57.436 106.973 56.924C107.269 56.404 107.669 56.008 108.173 55.736C108.677 55.456 109.241 55.316 109.865 55.316C110.489 55.316 111.053 55.456 111.557 55.736C112.061 56.008 112.457 56.4 112.745 56.912C113.041 57.424 113.189 58.02 113.189 58.7C113.189 59.38 113.037 59.98 112.733 60.5C112.437 61.012 112.033 61.408 111.521 61.688C111.009 61.968 110.441 62.108 109.817 62.108ZM109.817 61.148C110.209 61.148 110.577 61.056 110.921 60.872C111.265 60.688 111.541 60.412 111.749 60.044C111.965 59.676 112.073 59.228 112.073 58.7C112.073 58.172 111.969 57.724 111.761 57.356C111.553 56.988 111.281 56.716 110.945 56.54C110.609 56.356 110.245 56.264 109.853 56.264C109.453 56.264 109.085 56.356 108.749 56.54C108.421 56.716 108.157 56.988 107.957 57.356C107.757 57.724 107.657 58.172 107.657 58.7C107.657 59.236 107.753 59.688 107.945 60.056C108.145 60.424 108.409 60.7 108.737 60.884C109.065 61.06 109.425 61.148 109.817 61.148ZM115.717 56.492C115.909 56.116 116.181 55.824 116.533 55.616C116.893 55.408 117.329 55.304 117.841 55.304V56.432H117.553C116.329 56.432 115.717 57.096 115.717 58.424V62H114.625V55.424H115.717V56.492ZM120.434 56.324V60.2C120.434 60.52 120.502 60.748 120.638 60.884C120.774 61.012 121.01 61.076 121.346 61.076H122.15V62H121.166C120.558 62 120.102 61.86 119.798 61.58C119.494 61.3 119.342 60.84 119.342 60.2V56.324H118.49V55.424H119.342V53.768H120.434V55.424H122.15V56.324H120.434ZM125.801 62.108C125.297 62.108 124.845 62.024 124.445 61.856C124.045 61.68 123.729 61.44 123.497 61.136C123.265 60.824 123.137 60.468 123.113 60.068H124.241C124.273 60.396 124.425 60.664 124.697 60.872C124.977 61.08 125.341 61.184 125.789 61.184C126.205 61.184 126.533 61.092 126.773 60.908C127.013 60.724 127.133 60.492 127.133 60.212C127.133 59.924 127.005 59.712 126.749 59.576C126.493 59.432 126.097 59.292 125.561 59.156C125.073 59.028 124.673 58.9 124.361 58.772C124.057 58.636 123.793 58.44 123.569 58.184C123.353 57.92 123.245 57.576 123.245 57.152C123.245 56.816 123.345 56.508 123.545 56.228C123.745 55.948 124.029 55.728 124.397 55.568C124.765 55.4 125.185 55.316 125.657 55.316C126.385 55.316 126.973 55.5 127.421 55.868C127.869 56.236 128.109 56.74 128.141 57.38H127.049C127.025 57.036 126.885 56.76 126.629 56.552C126.381 56.344 126.045 56.24 125.621 56.24C125.229 56.24 124.917 56.324 124.685 56.492C124.453 56.66 124.337 56.88 124.337 57.152C124.337 57.368 124.405 57.548 124.541 57.692C124.685 57.828 124.861 57.94 125.069 58.028C125.285 58.108 125.581 58.2 125.957 58.304C126.429 58.432 126.813 58.56 127.109 58.688C127.405 58.808 127.657 58.992 127.865 59.24C128.081 59.488 128.193 59.812 128.201 60.212C128.201 60.572 128.101 60.896 127.901 61.184C127.701 61.472 127.417 61.7 127.049 61.868C126.689 62.028 126.273 62.108 125.801 62.108ZM130.09 62.072C129.882 62.072 129.706 62 129.562 61.856C129.418 61.712 129.346 61.536 129.346 61.328C129.346 61.12 129.418 60.944 129.562 60.8C129.706 60.656 129.882 60.584 130.09 60.584C130.29 60.584 130.458 60.656 130.594 60.8C130.738 60.944 130.81 61.12 130.81 61.328C130.81 61.536 130.738 61.712 130.594 61.856C130.458 62 130.29 62.072 130.09 62.072ZM130.09 56.936C129.882 56.936 129.706 56.864 129.562 56.72C129.418 56.576 129.346 56.4 129.346 56.192C129.346 55.984 129.418 55.808 129.562 55.664C129.706 55.52 129.882 55.448 130.09 55.448C130.29 55.448 130.458 55.52 130.594 55.664C130.738 55.808 130.81 55.984 130.81 56.192C130.81 56.4 130.738 56.576 130.594 56.72C130.458 56.864 130.29 56.936 130.09 56.936ZM141.088 56.084C141.088 56.78 140.848 57.36 140.368 57.824C139.896 58.28 139.172 58.508 138.196 58.508H136.588V62H135.496V53.636H138.196C139.14 53.636 139.856 53.864 140.344 54.32C140.84 54.776 141.088 55.364 141.088 56.084ZM138.196 57.608C138.804 57.608 139.252 57.476 139.54 57.212C139.828 56.948 139.972 56.572 139.972 56.084C139.972 55.052 139.38 54.536 138.196 54.536H136.588V57.608H138.196ZM149.021 62H147.929L143.537 55.34V62H142.445V53.624H143.537L147.929 60.272V53.624H149.021V62ZM157.219 56.06C156.987 55.572 156.651 55.196 156.211 54.932C155.771 54.66 155.259 54.524 154.675 54.524C154.091 54.524 153.563 54.66 153.091 54.932C152.627 55.196 152.259 55.58 151.987 56.084C151.723 56.58 151.591 57.156 151.591 57.812C151.591 58.468 151.723 59.044 151.987 59.54C152.259 60.036 152.627 60.42 153.091 60.692C153.563 60.956 154.091 61.088 154.675 61.088C155.491 61.088 156.163 60.844 156.691 60.356C157.219 59.868 157.527 59.208 157.615 58.376H154.279V57.488H158.779V58.328C158.715 59.016 158.499 59.648 158.131 60.224C157.763 60.792 157.279 61.244 156.679 61.58C156.079 61.908 155.411 62.072 154.675 62.072C153.899 62.072 153.191 61.892 152.551 61.532C151.911 61.164 151.403 60.656 151.027 60.008C150.659 59.36 150.475 58.628 150.475 57.812C150.475 56.996 150.659 56.264 151.027 55.616C151.403 54.96 151.911 54.452 152.551 54.092C153.191 53.724 153.899 53.54 154.675 53.54C155.563 53.54 156.347 53.76 157.027 54.2C157.715 54.64 158.215 55.26 158.527 56.06H157.219ZM161.351 60.488L160.007 63.716H159.275L160.151 60.488H161.351ZM170.013 53.636V59.816C170.013 60.504 169.801 61.056 169.377 61.472C168.953 61.88 168.393 62.084 167.697 62.084C166.993 62.084 166.429 61.876 166.005 61.46C165.581 61.036 165.369 60.46 165.369 59.732H166.461C166.469 60.14 166.573 60.472 166.773 60.728C166.981 60.984 167.289 61.112 167.697 61.112C168.105 61.112 168.409 60.992 168.609 60.752C168.809 60.504 168.909 60.192 168.909 59.816V53.636H170.013ZM177.756 56.084C177.756 56.78 177.516 57.36 177.036 57.824C176.564 58.28 175.84 58.508 174.864 58.508H173.256V62H172.164V53.636H174.864C175.808 53.636 176.524 53.864 177.012 54.32C177.508 54.776 177.756 55.364 177.756 56.084ZM174.864 57.608C175.472 57.608 175.92 57.476 176.208 57.212C176.496 56.948 176.64 56.572 176.64 56.084C176.64 55.052 176.048 54.536 174.864 54.536H173.256V57.608H174.864ZM185.449 56.06C185.217 55.572 184.881 55.196 184.441 54.932C184.001 54.66 183.489 54.524 182.905 54.524C182.321 54.524 181.793 54.66 181.321 54.932C180.857 55.196 180.489 55.58 180.217 56.084C179.953 56.58 179.821 57.156 179.821 57.812C179.821 58.468 179.953 59.044 180.217 59.54C180.489 60.036 180.857 60.42 181.321 60.692C181.793 60.956 182.321 61.088 182.905 61.088C183.721 61.088 184.393 60.844 184.921 60.356C185.449 59.868 185.757 59.208 185.845 58.376H182.509V57.488H187.009V58.328C186.945 59.016 186.729 59.648 186.361 60.224C185.993 60.792 185.509 61.244 184.909 61.58C184.309 61.908 183.641 62.072 182.905 62.072C182.129 62.072 181.421 61.892 180.781 61.532C180.141 61.164 179.633 60.656 179.257 60.008C178.889 59.36 178.705 58.628 178.705 57.812C178.705 56.996 178.889 56.264 179.257 55.616C179.633 54.96 180.141 54.452 180.781 54.092C181.421 53.724 182.129 53.54 182.905 53.54C183.793 53.54 184.577 53.76 185.257 54.2C185.945 54.64 186.445 55.26 186.757 56.06H185.449ZM189.581 60.488L188.237 63.716H187.505L188.381 60.488H189.581ZM198.243 53.636V59.816C198.243 60.504 198.031 61.056 197.607 61.472C197.183 61.88 196.623 62.084 195.927 62.084C195.223 62.084 194.659 61.876 194.235 61.46C193.811 61.036 193.599 60.46 193.599 59.732H194.691C194.699 60.14 194.803 60.472 195.003 60.728C195.211 60.984 195.519 61.112 195.927 61.112C196.335 61.112 196.639 60.992 196.839 60.752C197.039 60.504 197.139 60.192 197.139 59.816V53.636H198.243ZM205.987 56.084C205.987 56.78 205.747 57.36 205.267 57.824C204.795 58.28 204.071 58.508 203.095 58.508H201.487V62H200.395V53.636H203.095C204.039 53.636 204.755 53.864 205.243 54.32C205.739 54.776 205.987 55.364 205.987 56.084ZM203.095 57.608C203.703 57.608 204.151 57.476 204.439 57.212C204.727 56.948 204.871 56.572 204.871 56.084C204.871 55.052 204.279 54.536 203.095 54.536H201.487V57.608H203.095ZM208.436 54.524V57.32H211.484V58.22H208.436V61.1H211.844V62H207.344V53.624H211.844V54.524H208.436ZM219.832 56.06C219.6 55.572 219.264 55.196 218.824 54.932C218.384 54.66 217.872 54.524 217.288 54.524C216.704 54.524 216.176 54.66 215.704 54.932C215.24 55.196 214.872 55.58 214.6 56.084C214.336 56.58 214.204 57.156 214.204 57.812C214.204 58.468 214.336 59.044 214.6 59.54C214.872 60.036 215.24 60.42 215.704 60.692C216.176 60.956 216.704 61.088 217.288 61.088C218.104 61.088 218.776 60.844 219.304 60.356C219.832 59.868 220.14 59.208 220.228 58.376H216.892V57.488H221.392V58.328C221.328 59.016 221.112 59.648 220.744 60.224C220.376 60.792 219.892 61.244 219.292 61.58C218.692 61.908 218.024 62.072 217.288 62.072C216.512 62.072 215.804 61.892 215.164 61.532C214.524 61.164 214.016 60.656 213.64 60.008C213.272 59.36 213.088 58.628 213.088 57.812C213.088 56.996 213.272 56.264 213.64 55.616C214.016 54.96 214.524 54.452 215.164 54.092C215.804 53.724 216.512 53.54 217.288 53.54C218.176 53.54 218.96 53.76 219.64 54.2C220.328 54.64 220.828 55.26 221.14 56.06H219.832Z" fill="#6F6F6F"/>
</svg>
