<svg width="17" height="21" viewBox="0 0 17 21" fill="none" xmlns="http://www.w3.org/2000/svg">
<path d="M8.49996 10.5C9.07288 10.5 9.5635 10.2959 9.97183 9.88754C10.3795 9.4799 10.5833 8.98962 10.5833 8.41671C10.5833 7.84379 10.3795 7.35317 9.97183 6.94483C9.5635 6.53719 9.07288 6.33337 8.49996 6.33337C7.92704 6.33337 7.43677 6.53719 7.02913 6.94483C6.62079 7.35317 6.41663 7.84379 6.41663 8.41671C6.41663 8.98962 6.62079 9.4799 7.02913 9.88754C7.43677 10.2959 7.92704 10.5 8.49996 10.5ZM8.49996 20.5261C8.36107 20.5261 8.22218 20.5 8.08329 20.448C7.9444 20.3959 7.82288 20.3264 7.71871 20.2396C5.18399 18 3.29163 15.9212 2.04163 14.0032C0.791626 12.0844 0.166626 10.2917 0.166626 8.62504C0.166626 6.02087 1.00447 3.94622 2.68017 2.40108C4.35517 0.855943 6.2951 0.083374 8.49996 0.083374C10.7048 0.083374 12.6448 0.855943 14.3198 2.40108C15.9954 3.94622 16.8333 6.02087 16.8333 8.62504C16.8333 10.2917 16.2083 12.0844 14.9583 14.0032C13.7083 15.9212 11.8159 18 9.28121 20.2396C9.17704 20.3264 9.05551 20.3959 8.91663 20.448C8.77774 20.5 8.63885 20.5261 8.49996 20.5261Z" fill="black"/>
</svg>
