<svg width="196" height="192" viewBox="0 0 196 192" fill="none" xmlns="http://www.w3.org/2000/svg">
<g filter="url(#filter0_d_28_7571)">
<rect x="24" y="20" width="152" height="152" rx="76" fill="#2F61BF" shape-rendering="crispEdges"/>
<circle cx="28" cy="31" r="2" fill="#2F61BF"/>
<circle cx="174" cy="42" r="2" fill="#2F61BF"/>
<circle cx="22" cy="165" r="2" fill="#2F61BF"/>
<path d="M99.499 129.093C80.9678 129.093 65.9053 114.03 65.9053 95.499C65.9053 76.9678 80.9678 61.9053 99.499 61.9053C118.03 61.9053 133.093 76.9678 133.093 95.499C133.093 114.03 118.03 129.093 99.499 129.093ZM99.499 66.5928C83.5615 66.5928 70.5928 79.5615 70.5928 95.499C70.5928 111.437 83.5615 124.405 99.499 124.405C115.437 124.405 128.405 111.437 128.405 95.499C128.405 79.5615 115.437 66.5928 99.499 66.5928Z" fill="white"/>
<path d="M95.0615 106.688C94.4365 106.688 93.8428 106.437 93.4053 106L84.5615 97.1562C83.6553 96.25 83.6553 94.75 84.5615 93.8438C85.4678 92.9375 86.9678 92.9375 87.874 93.8438L95.0615 101.031L111.124 84.9688C112.03 84.0625 113.53 84.0625 114.437 84.9688C115.343 85.875 115.343 87.375 114.437 88.2812L96.7178 106C96.2803 106.437 95.6865 106.688 95.0615 106.688Z" fill="white"/>
</g>
<defs>
<filter id="filter0_d_28_7571" x="0" y="0" width="196" height="192" filterUnits="userSpaceOnUse" color-interpolation-filters="sRGB">
<feFlood flood-opacity="0" result="BackgroundImageFix"/>
<feColorMatrix in="SourceAlpha" type="matrix" values="0 0 0 0 0 0 0 0 0 0 0 0 0 0 0 0 0 0 127 0" result="hardAlpha"/>
<feOffset/>
<feGaussianBlur stdDeviation="10"/>
<feComposite in2="hardAlpha" operator="out"/>
<feColorMatrix type="matrix" values="0 0 0 0 0 0 0 0 0 0 0 0 0 0 0 0 0 0 0.08 0"/>
<feBlend mode="normal" in2="BackgroundImageFix" result="effect1_dropShadow_28_7571"/>
<feBlend mode="normal" in="SourceGraphic" in2="effect1_dropShadow_28_7571" result="shape"/>
</filter>
</defs>
</svg>
