<svg width="226" height="226" viewBox="0 0 226 226" fill="none" xmlns="http://www.w3.org/2000/svg">
<circle cx="113" cy="113" r="113" fill="#2F61BF"/>
<rect width="98" height="98" transform="translate(64 64)" fill="#2F61BF"/>
<path fill-rule="evenodd" clip-rule="evenodd" d="M128.313 119.125C143.535 119.125 155.875 106.785 155.875 91.5625C155.875 76.3402 143.535 64 128.313 64C113.09 64 100.75 76.3402 100.75 91.5625C100.75 96.9558 102.299 101.987 104.977 106.236L67.5881 143.625L85.9454 161.982L94.6075 153.32L84.9122 143.625L94.6252 133.912L104.32 143.607L112.983 134.945L103.287 125.25L113.639 114.898C117.888 117.576 122.919 119.125 128.313 119.125ZM128.313 106.875C136.769 106.875 143.625 100.019 143.625 91.5625C143.625 83.1057 136.769 76.25 128.313 76.25C119.856 76.25 113 83.1057 113 91.5625C113 100.019 119.856 106.875 128.313 106.875Z" fill="white"/>
</svg>
