<svg width="39" height="39" viewBox="0 0 39 39" fill="none" xmlns="http://www.w3.org/2000/svg">
<path d="M31.2 1.95001C35.1 1.95001 37.375 7.15001 38.025 9.75001V24.375C38.025 28.275 34.125 30.55 32.175 31.2L24.375 33.15L19.5 38.025L13.65 32.175C6.63002 32.955 2.92498 29.25 1.94997 27.3C1.62497 22.425 1.16997 11.7 1.94997 7.80001C2.72997 3.90001 6.17497 2.27501 7.79997 1.95001H31.2Z" fill="white" fill-opacity="0.8"/>
<mask id="path-2-inside-1_222_15825" fill="white">
<path d="M22.642 37.2219L23.6253 35.5606L21.2837 34.1746L20.3004 35.836L22.642 37.2219ZM15.3747 35.5606L16.3581 37.2219L18.6995 35.836L17.7162 34.1746L15.3747 35.5606ZM20.3004 35.836C19.9508 36.4266 19.0493 36.4266 18.6995 35.836L16.3581 37.2219C17.7614 39.5927 21.2387 39.5927 22.642 37.2219L20.3004 35.836ZM16.7791 2.72094H22.221V3.7377e-07H16.7791V2.72094ZM36.2792 16.7791V18.5931H39.0001V16.7791H36.2792ZM2.72094 18.5931V16.7791H3.7377e-07V18.5931H2.72094ZM3.7377e-07 18.5931C3.7377e-07 20.6875 -0.000743411 22.3264 0.0894466 23.6482C0.180489 24.9824 0.368651 26.0927 0.793952 27.1194L3.30777 26.0782C3.04268 25.4382 2.88566 24.6586 2.80409 23.463C2.72168 22.2553 2.72094 20.7246 2.72094 18.5931H3.7377e-07ZM11.886 30.822C9.60864 30.7827 8.41537 30.6379 7.48002 30.2505L6.43877 32.7642C7.89895 33.369 9.56206 33.5033 11.8391 33.5424L11.886 30.822ZM0.793952 27.1194C1.85256 29.6751 3.88307 31.7056 6.43877 32.7642L7.48002 30.2505C5.59102 29.4679 4.09022 27.9672 3.30777 26.0782L0.793952 27.1194ZM36.2792 18.5931C36.2792 20.7246 36.2784 22.2553 36.1961 23.463C36.1144 24.6586 35.9574 25.4382 35.6923 26.0782L38.2061 27.1194C38.6315 26.0927 38.8196 24.9824 38.9107 23.6482C39.0008 22.3264 39.0001 20.6875 39.0001 18.5931H36.2792ZM27.1609 33.5424C29.438 33.5033 31.1012 33.369 32.5613 32.7642L31.5201 30.2505C30.5848 30.6379 29.3914 30.7827 27.1141 30.822L27.1609 33.5424ZM35.6923 26.0782C34.9098 27.9672 33.4091 29.4679 31.5201 30.2505L32.5613 32.7642C35.1169 31.7056 37.1475 29.6751 38.2061 27.1194L35.6923 26.0782ZM22.221 2.72094C25.2162 2.72094 27.3672 2.72237 29.0449 2.88189C30.7025 3.03949 31.7571 3.34173 32.5979 3.85698L34.0197 1.537C32.6794 0.715734 31.1591 0.349713 29.3025 0.173179C27.466 -0.00143273 25.1636 3.7377e-07 22.221 3.7377e-07V2.72094ZM39.0001 16.7791C39.0001 13.8365 39.0015 11.5341 38.8269 9.69762C38.6504 7.84094 38.2843 6.32065 37.4631 4.98046L35.1431 6.40215C35.6584 7.24297 35.9606 8.29766 36.1183 9.95516C36.2777 11.6329 36.2792 13.7838 36.2792 16.7791H39.0001ZM32.5979 3.85698C33.6353 4.49267 34.5075 5.36482 35.1431 6.40215L37.4631 4.98046C36.6031 3.57702 35.4231 2.39704 34.0197 1.537L32.5979 3.85698ZM16.7791 3.7377e-07C13.8365 3.7377e-07 11.5341 -0.00143273 9.69762 0.173179C7.84094 0.349713 6.32065 0.715734 4.98046 1.537L6.40215 3.85698C7.24297 3.34173 8.29766 3.03949 9.95516 2.88189C11.6329 2.72237 13.7838 2.72094 16.7791 2.72094V3.7377e-07ZM2.72094 16.7791C2.72094 13.7838 2.72237 11.6329 2.88189 9.95516C3.03949 8.29766 3.34173 7.24297 3.85698 6.40215L1.537 4.98046C0.715734 6.32065 0.349713 7.84094 0.173179 9.69762C-0.00143272 11.5341 3.7377e-07 13.8365 3.7377e-07 16.7791H2.72094ZM4.98046 1.537C3.57702 2.39704 2.39704 3.57702 1.537 4.98046L3.85698 6.40215C4.49267 5.36482 5.36482 4.49267 6.40215 3.85698L4.98046 1.537ZM17.7162 34.1746C17.348 33.5524 17.0247 33.0033 16.7104 32.572C16.3791 32.1178 15.9995 31.7087 15.4728 31.4023L14.1048 33.7545C14.1908 33.8044 14.308 33.8956 14.5114 34.1746C14.7315 34.4768 14.9803 34.8942 15.3747 35.5606L17.7162 34.1746ZM11.8391 33.5424C12.6356 33.5562 13.1401 33.5664 13.5247 33.6088C13.884 33.6487 14.0233 33.707 14.1048 33.7545L15.4728 31.4023C14.9417 31.0934 14.3891 30.967 13.8241 30.9044C13.2843 30.8447 12.6319 30.8349 11.886 30.822L11.8391 33.5424ZM23.6253 35.5606C24.0197 34.8942 24.2684 34.4768 24.4886 34.1746C24.692 33.8956 24.8091 33.8044 24.8951 33.7545L23.5272 31.4023C23.0006 31.7087 22.6208 32.1178 22.2897 32.572C21.9754 33.0033 21.6521 33.5524 21.2837 34.1746L23.6253 35.5606ZM27.1141 30.822C26.3681 30.8349 25.7158 30.8447 25.1759 30.9044C24.6109 30.967 24.0583 31.0934 23.5272 31.4023L24.8951 33.7545C24.9767 33.707 25.1161 33.6487 25.4754 33.6088C25.86 33.5664 26.3644 33.5562 27.1609 33.5424L27.1141 30.822Z"/>
</mask>
<path d="M22.642 37.2219L23.6253 35.5606L21.2837 34.1746L20.3004 35.836L22.642 37.2219ZM15.3747 35.5606L16.3581 37.2219L18.6995 35.836L17.7162 34.1746L15.3747 35.5606ZM20.3004 35.836C19.9508 36.4266 19.0493 36.4266 18.6995 35.836L16.3581 37.2219C17.7614 39.5927 21.2387 39.5927 22.642 37.2219L20.3004 35.836ZM16.7791 2.72094H22.221V3.7377e-07H16.7791V2.72094ZM36.2792 16.7791V18.5931H39.0001V16.7791H36.2792ZM2.72094 18.5931V16.7791H3.7377e-07V18.5931H2.72094ZM3.7377e-07 18.5931C3.7377e-07 20.6875 -0.000743411 22.3264 0.0894466 23.6482C0.180489 24.9824 0.368651 26.0927 0.793952 27.1194L3.30777 26.0782C3.04268 25.4382 2.88566 24.6586 2.80409 23.463C2.72168 22.2553 2.72094 20.7246 2.72094 18.5931H3.7377e-07ZM11.886 30.822C9.60864 30.7827 8.41537 30.6379 7.48002 30.2505L6.43877 32.7642C7.89895 33.369 9.56206 33.5033 11.8391 33.5424L11.886 30.822ZM0.793952 27.1194C1.85256 29.6751 3.88307 31.7056 6.43877 32.7642L7.48002 30.2505C5.59102 29.4679 4.09022 27.9672 3.30777 26.0782L0.793952 27.1194ZM36.2792 18.5931C36.2792 20.7246 36.2784 22.2553 36.1961 23.463C36.1144 24.6586 35.9574 25.4382 35.6923 26.0782L38.2061 27.1194C38.6315 26.0927 38.8196 24.9824 38.9107 23.6482C39.0008 22.3264 39.0001 20.6875 39.0001 18.5931H36.2792ZM27.1609 33.5424C29.438 33.5033 31.1012 33.369 32.5613 32.7642L31.5201 30.2505C30.5848 30.6379 29.3914 30.7827 27.1141 30.822L27.1609 33.5424ZM35.6923 26.0782C34.9098 27.9672 33.4091 29.4679 31.5201 30.2505L32.5613 32.7642C35.1169 31.7056 37.1475 29.6751 38.2061 27.1194L35.6923 26.0782ZM22.221 2.72094C25.2162 2.72094 27.3672 2.72237 29.0449 2.88189C30.7025 3.03949 31.7571 3.34173 32.5979 3.85698L34.0197 1.537C32.6794 0.715734 31.1591 0.349713 29.3025 0.173179C27.466 -0.00143273 25.1636 3.7377e-07 22.221 3.7377e-07V2.72094ZM39.0001 16.7791C39.0001 13.8365 39.0015 11.5341 38.8269 9.69762C38.6504 7.84094 38.2843 6.32065 37.4631 4.98046L35.1431 6.40215C35.6584 7.24297 35.9606 8.29766 36.1183 9.95516C36.2777 11.6329 36.2792 13.7838 36.2792 16.7791H39.0001ZM32.5979 3.85698C33.6353 4.49267 34.5075 5.36482 35.1431 6.40215L37.4631 4.98046C36.6031 3.57702 35.4231 2.39704 34.0197 1.537L32.5979 3.85698ZM16.7791 3.7377e-07C13.8365 3.7377e-07 11.5341 -0.00143273 9.69762 0.173179C7.84094 0.349713 6.32065 0.715734 4.98046 1.537L6.40215 3.85698C7.24297 3.34173 8.29766 3.03949 9.95516 2.88189C11.6329 2.72237 13.7838 2.72094 16.7791 2.72094V3.7377e-07ZM2.72094 16.7791C2.72094 13.7838 2.72237 11.6329 2.88189 9.95516C3.03949 8.29766 3.34173 7.24297 3.85698 6.40215L1.537 4.98046C0.715734 6.32065 0.349713 7.84094 0.173179 9.69762C-0.00143272 11.5341 3.7377e-07 13.8365 3.7377e-07 16.7791H2.72094ZM4.98046 1.537C3.57702 2.39704 2.39704 3.57702 1.537 4.98046L3.85698 6.40215C4.49267 5.36482 5.36482 4.49267 6.40215 3.85698L4.98046 1.537ZM17.7162 34.1746C17.348 33.5524 17.0247 33.0033 16.7104 32.572C16.3791 32.1178 15.9995 31.7087 15.4728 31.4023L14.1048 33.7545C14.1908 33.8044 14.308 33.8956 14.5114 34.1746C14.7315 34.4768 14.9803 34.8942 15.3747 35.5606L17.7162 34.1746ZM11.8391 33.5424C12.6356 33.5562 13.1401 33.5664 13.5247 33.6088C13.884 33.6487 14.0233 33.707 14.1048 33.7545L15.4728 31.4023C14.9417 31.0934 14.3891 30.967 13.8241 30.9044C13.2843 30.8447 12.6319 30.8349 11.886 30.822L11.8391 33.5424ZM23.6253 35.5606C24.0197 34.8942 24.2684 34.4768 24.4886 34.1746C24.692 33.8956 24.8091 33.8044 24.8951 33.7545L23.5272 31.4023C23.0006 31.7087 22.6208 32.1178 22.2897 32.572C21.9754 33.0033 21.6521 33.5524 21.2837 34.1746L23.6253 35.5606ZM27.1141 30.822C26.3681 30.8349 25.7158 30.8447 25.1759 30.9044C24.6109 30.967 24.0583 31.0934 23.5272 31.4023L24.8951 33.7545C24.9767 33.707 25.1161 33.6487 25.4754 33.6088C25.86 33.5664 26.3644 33.5562 27.1609 33.5424L27.1141 30.822Z" fill="#2F61BF"/>
<path d="M22.642 37.2219L22.0054 38.2976L23.2787 36.1462L22.642 37.2219ZM21.2837 34.1746L21.9203 33.0989L20.647 35.2503L21.2837 34.1746ZM15.3747 35.5606L14.7379 34.485L16.0115 36.6363L15.3747 35.5606ZM37.4631 4.98046L38.1162 6.04626L36.81 3.91465L37.4631 4.98046ZM15.4728 31.4023L16.5533 32.0308L14.3923 30.7739L15.4728 31.4023ZM20.8346 37.6046L22.0053 38.2976L23.2787 36.1462L22.108 35.4532L20.8346 37.6046ZM23.0912 33.7918L21.9203 33.0989L20.6471 35.2503L21.818 35.9433L23.0912 33.7918ZM15.9087 33.7919L14.7379 34.485L16.0115 36.6363L17.1823 35.9432L15.9087 33.7919ZM18.1655 37.6046L19.3362 36.9117L18.0629 34.7603L16.8921 35.4532L18.1655 37.6046ZM2.5292 27.7536L3.78611 27.233L2.82943 24.9233L1.57252 25.4439L2.5292 27.7536ZM10.6127 32.1608L10.5893 33.5209L13.0889 33.564L13.1123 32.2039L10.6127 32.1608ZM5.80455 31.029L5.28392 32.2859L7.59362 33.2426L8.11424 31.9857L5.80455 31.029ZM36.4709 27.7536L37.7278 28.2742L38.6845 25.9645L37.4276 25.4439L36.4709 27.7536ZM28.3873 32.1608L28.3639 30.8005L25.8643 30.8435L25.8877 32.2038L28.3873 32.1608ZM30.8858 31.9857L31.4064 33.2426L33.7161 32.2859L33.1955 31.029L30.8858 31.9857ZM32.243 2.04384L31.5321 3.20383L33.6637 4.51014L34.3746 3.35015L32.243 2.04384ZM36.9562 6.75711L38.1162 6.04626L36.81 3.91465L35.65 4.62551L36.9562 6.75711ZM6.75711 2.04386L6.04625 0.883873L3.91466 2.19013L4.62551 3.35012L6.75711 2.04386ZM3.35012 4.62552L2.19013 3.91466L0.883873 6.04625L2.04386 6.75711L3.35012 4.62552ZM15.8693 33.2068L16.5533 32.0308L14.3923 30.7739L13.7083 31.9499L15.8693 33.2068ZM24.2621 34.485L21.9204 33.0989L20.647 35.2503L22.9886 36.6363L24.2621 34.485ZM19.6637 36.9117L22.0054 38.2976L23.2786 36.1461L20.937 34.7603L19.6637 36.9117ZM16.9948 38.2976L19.3362 36.9117L18.0629 34.7603L15.7214 36.1462L16.9948 38.2976ZM17.0795 33.0989L14.738 34.485L16.0115 36.6363L18.3529 35.2503L17.0795 33.0989ZM23.471 2.72094V3.7377e-07H20.971V2.72094H23.471ZM15.5291 3.7377e-07V2.72094H18.0291V3.7377e-07H15.5291ZM36.2792 19.8431H39.0001V17.3431H36.2792V19.8431ZM39.0001 15.5291H36.2792V18.0291H39.0001V15.5291ZM2.72094 15.5291H3.7377e-07V18.0291H2.72094V15.5291ZM3.7377e-07 19.8431H2.72094V17.3431H3.7377e-07V19.8431ZM1.27229 28.2743L3.78611 27.233L2.82943 24.9233L0.315615 25.9645L1.27229 28.2743ZM6.32517 29.7721L5.28392 32.2859L7.59362 33.2426L8.63487 30.7288L6.32517 29.7721ZM13.0889 33.564L13.1358 30.8436L10.6361 30.8005L10.5893 33.5209L13.0889 33.564ZM35.214 27.233L37.7278 28.2742L38.6845 25.9645L36.1707 24.9233L35.214 27.233ZM33.7161 32.2859L32.6749 29.7721L30.3652 30.7288L31.4064 33.2426L33.7161 32.2859ZM25.8643 30.8435L25.9111 33.5639L28.4107 33.5209L28.3639 30.8005L25.8643 30.8435ZM33.6637 4.51014L35.0855 2.19016L32.9539 0.883848L31.5321 3.20383L33.6637 4.51014ZM36.81 3.91465L34.49 5.33634L35.7962 7.46796L38.1162 6.04627L36.81 3.91465ZM3.91466 2.19013L5.33635 4.51011L7.46795 3.20386L6.04626 0.883879L3.91466 2.19013ZM4.51011 5.33635L2.19013 3.91466L0.883879 6.04626L3.20386 7.46795L4.51011 5.33635ZM14.3923 30.7739L13.0243 33.1261L15.1854 34.3829L16.5533 32.0308L14.3923 30.7739ZM25.9757 33.1261L24.6078 30.7739L22.4467 32.0307L23.8146 34.3829L25.9757 33.1261ZM22.642 37.2219L20.4907 35.9484L20.4906 35.9485L22.642 37.2219ZM21.2837 34.1746L19.1325 32.9008L19.1323 32.9012L21.2837 34.1746ZM15.3747 35.5606L13.2233 36.8339L13.2234 36.8341L15.3747 35.5606ZM18.6995 35.836L16.5481 37.1094L16.5484 37.1098L18.6995 35.836ZM3.30777 26.0782L5.61748 25.1215L5.61746 25.1214L3.30777 26.0782ZM11.8391 33.5424L11.8823 31.0428L11.8821 31.0428L11.8391 33.5424ZM6.43877 32.7642L5.48205 35.0739L5.48213 35.074L6.43877 32.7642ZM38.2061 27.1194L35.8965 26.1625L35.8964 26.1627L38.2061 27.1194ZM27.1141 30.822L27.1573 33.3217L27.1573 33.3217L27.1141 30.822ZM32.5613 32.7642L33.518 35.0739L33.518 35.0739L32.5613 32.7642ZM32.5979 3.85698L31.2916 5.98855L31.2917 5.98862L32.5979 3.85698ZM37.4631 4.98046L39.5948 3.67431L39.5947 3.67425L37.4631 4.98046ZM4.98046 1.537L3.67421 -0.594597L3.67421 -0.594595L4.98046 1.537ZM1.537 4.98046L-0.594595 3.67421L-0.594597 3.67421L1.537 4.98046ZM15.4728 31.4023L16.7299 29.2414L16.7299 29.2414L15.4728 31.4023ZM23.6253 35.5606L25.7767 36.8341L25.7769 36.8338L23.6253 35.5606ZM20.3004 35.836L18.149 34.5626L18.1489 34.5627L20.3004 35.836ZM16.3581 37.2219L18.5095 35.9485L18.5094 35.9484L16.3581 37.2219ZM17.7162 34.1746L15.5648 35.4479L15.5648 35.448L17.7162 34.1746ZM0.0894466 23.6482L-2.40475 23.8184L-2.40475 23.8184L0.0894466 23.6482ZM0.793952 27.1194L3.10365 26.1627L3.10363 26.1626L0.793952 27.1194ZM2.80409 23.463L5.29829 23.2928L5.29829 23.2928L2.80409 23.463ZM11.886 30.822L11.8428 33.3217L11.8428 33.3217L11.886 30.822ZM7.48002 30.2505L6.52321 32.5601L6.52325 32.5601L7.48002 30.2505ZM36.1961 23.463L38.6903 23.6333L38.6903 23.6331L36.1961 23.463ZM35.6923 26.0782L38.002 27.035L38.0021 27.0347L35.6923 26.0782ZM38.9107 23.6482L41.4049 23.8184L41.4049 23.8183L38.9107 23.6482ZM27.1609 33.5424L27.1179 31.0428L27.1177 31.0428L27.1609 33.5424ZM31.5201 30.2505L30.5633 27.9408L30.5632 27.9408L31.5201 30.2505ZM29.0449 2.88189L28.8083 5.37067L28.8083 5.37067L29.0449 2.88189ZM34.0197 1.537L35.3259 -0.594602L35.3258 -0.59466L34.0197 1.537ZM29.3025 0.173179L29.5391 -2.3156L29.5391 -2.3156L29.3025 0.173179ZM38.8269 9.69762L36.3381 9.9342L36.3381 9.93435L38.8269 9.69762ZM35.1431 6.40215L33.0114 7.70829L33.0116 7.70855L35.1431 6.40215ZM36.1183 9.95516L38.607 9.71864L38.607 9.71848L36.1183 9.95516ZM9.69762 0.173179L9.93425 2.66195L9.93426 2.66195L9.69762 0.173179ZM6.40215 3.85698L5.09591 1.72538L5.09589 1.72539L6.40215 3.85698ZM9.95516 2.88189L9.71853 0.393114L9.71853 0.393114L9.95516 2.88189ZM2.88189 9.95516L0.393114 9.71853L0.393114 9.71853L2.88189 9.95516ZM3.85698 6.40215L1.72539 5.09589L1.72538 5.09591L3.85698 6.40215ZM0.173179 9.69762L2.66195 9.93426L2.66195 9.93425L0.173179 9.69762ZM16.7104 32.572L18.7308 31.0996L18.7303 31.099L16.7104 32.572ZM14.1048 33.7545L12.8457 35.9143L12.8505 35.917L14.1048 33.7545ZM14.5114 34.1746L16.532 32.7025L16.5315 32.7018L14.5114 34.1746ZM13.5247 33.6088L13.8006 31.1241L13.7989 31.1239L13.5247 33.6088ZM13.8241 30.9044L14.0993 28.4196L14.0988 28.4195L13.8241 30.9044ZM24.4886 34.1746L22.4683 32.7021L22.4681 32.7023L24.4886 34.1746ZM24.8951 33.7545L26.1497 35.9169L26.153 35.915L24.8951 33.7545ZM23.5272 31.4023L22.2703 29.2413L22.27 29.2415L23.5272 31.4023ZM22.2897 32.572L20.2694 31.0995L20.2693 31.0996L22.2897 32.572ZM25.1759 30.9044L24.9012 28.4195L24.9007 28.4196L25.1759 30.9044ZM25.4754 33.6088L25.2011 31.1239L25.1995 31.1241L25.4754 33.6088ZM24.7933 38.4953L25.7767 36.8341L21.474 34.2872L20.4907 35.9484L24.7933 38.4953ZM19.1323 32.9012L18.149 34.5626L22.4518 37.1094L23.4351 35.448L19.1323 32.9012ZM13.2234 36.8341L14.2068 38.4954L18.5094 35.9484L17.5261 34.2872L13.2234 36.8341ZM20.8509 34.5626L19.8676 32.9012L15.5648 35.448L16.5481 37.1094L20.8509 34.5626ZM18.1489 34.5627C18.4819 34.0001 19.0489 33.779 19.5 33.779C19.9511 33.779 20.5178 34 20.8507 34.5622L16.5484 37.1098C17.866 39.3349 21.134 39.336 22.4518 37.1093L18.1489 34.5627ZM14.2067 38.4953C16.578 42.5016 22.4221 42.5016 24.7934 38.4953L20.4906 35.9485C20.0554 36.6838 18.9447 36.6838 18.5095 35.9485L14.2067 38.4953ZM16.7791 5.22094H22.221V0.220937H16.7791V5.22094ZM22.221 -2.5H16.7791V2.5H22.221V-2.5ZM33.7792 16.7791V18.5931H38.7792V16.7791H33.7792ZM41.5001 18.5931V16.7791H36.5001V18.5931H41.5001ZM5.22094 18.5931V16.7791H0.220937V18.5931H5.22094ZM-2.5 16.7791V18.5931H2.5V16.7791H-2.5ZM-2.5 18.5931C-2.5 20.6536 -2.50209 22.3918 -2.40475 23.8184L2.58365 23.478C2.5006 22.2609 2.5 20.7213 2.5 18.5931H-2.5ZM-2.40475 23.8184C-2.305 25.2802 -2.08818 26.6942 -1.51573 28.0762L3.10363 26.1626C2.82548 25.4912 2.66598 24.6846 2.58365 23.478L-2.40475 23.8184ZM5.61746 25.1214C5.49972 24.8372 5.37122 24.3617 5.29829 23.2928L0.309888 23.6332C0.400109 24.9555 0.58564 26.0392 0.998084 27.0349L5.61746 25.1214ZM5.29829 23.2928C5.22304 22.19 5.22094 20.7593 5.22094 18.5931H0.220937C0.220937 20.69 0.22032 22.3205 0.309888 23.6332L5.29829 23.2928ZM11.9292 28.3224C9.64809 28.283 8.88859 28.128 8.43678 27.9408L6.52325 32.5601C7.94214 33.1479 9.56919 33.2824 11.8428 33.3217L11.9292 28.3224ZM5.48213 35.074C7.4235 35.878 9.51665 36.0028 11.7961 36.0421L11.8821 31.0428C9.60747 31.0037 8.37441 30.86 7.39541 30.4545L5.48213 35.074ZM-1.51574 28.0761C-0.203407 31.2443 2.31377 33.7616 5.48205 35.0739L7.39549 30.4546C5.45236 29.6497 3.90853 28.1058 3.10365 26.1627L-1.51574 28.0761ZM8.43682 27.9408C7.16025 27.412 6.14617 26.3979 5.61748 25.1215L0.998062 27.0349C2.03427 29.5366 4.02178 31.5239 6.52321 32.5601L8.43682 27.9408ZM33.7792 18.5931C33.7792 20.7593 33.7771 22.1901 33.7019 23.2929L38.6903 23.6331C38.7798 22.3205 38.7792 20.69 38.7792 18.5931H33.7792ZM33.7019 23.2927C33.6289 24.3614 33.5004 24.8372 33.3826 25.1217L38.0021 27.0347C38.4143 26.0393 38.6 24.9557 38.6903 23.6333L33.7019 23.2927ZM40.5157 28.0763C41.0883 26.6942 41.3051 25.2801 41.4049 23.8184L36.4165 23.478C36.3341 24.6847 36.1746 25.4912 35.8965 26.1625L40.5157 28.0763ZM41.4049 23.8183C41.5022 22.3918 41.5001 20.6537 41.5001 18.5931H36.5001C36.5001 20.7213 36.4995 22.261 36.4165 23.4781L41.4049 23.8183ZM27.2039 36.0421C29.4833 36.0028 31.5767 35.8781 33.518 35.0739L31.6046 30.4545C30.6257 30.86 29.3926 31.0037 27.1179 31.0428L27.2039 36.0421ZM30.5632 27.9408C30.1115 28.1279 29.352 28.283 27.0709 28.3224L27.1573 33.3217C29.4308 33.2824 31.058 33.1479 32.4769 32.5601L30.5632 27.9408ZM33.3827 25.1214C32.8539 26.3979 31.8398 27.412 30.5633 27.9408L32.4768 32.5601C34.9784 31.5239 36.9657 29.5365 38.002 27.035L33.3827 25.1214ZM33.518 35.0739C36.6862 33.7616 39.2034 31.2444 40.5158 28.0761L35.8964 26.1627C35.0915 28.1058 33.5477 29.6497 31.6045 30.4546L33.518 35.0739ZM22.221 5.22094C25.2652 5.22094 27.2765 5.22502 28.8083 5.37067L29.2815 0.393114C27.4579 0.21972 25.1672 0.220937 22.221 0.220937V5.22094ZM28.8083 5.37067C30.2831 5.51089 30.9098 5.75458 31.2916 5.98855L33.9042 1.72542C32.6044 0.928871 31.1219 0.568084 29.2815 0.393113L28.8083 5.37067ZM35.3258 -0.59466C33.5268 -1.69696 31.5789 -2.12164 29.5391 -2.3156L29.0658 2.66195C30.7392 2.82107 31.8319 3.12843 32.7135 3.66867L35.3258 -0.59466ZM29.5391 -2.3156C27.557 -2.50406 25.1157 -2.5 22.221 -2.5V2.5C25.2114 2.5 27.3751 2.50119 29.0659 2.66195L29.5391 -2.3156ZM41.5001 16.7791C41.5001 13.8844 41.5042 11.443 41.3156 9.46088L36.3381 9.93435C36.4989 11.6251 36.5001 13.7886 36.5001 16.7791H41.5001ZM41.3156 9.46103C41.1217 7.42109 40.697 5.47316 39.5948 3.67431L35.3315 6.2866C35.8716 7.16813 36.179 8.26079 36.3381 9.9342L41.3156 9.46103ZM33.0116 7.70855C33.2455 8.09031 33.4892 8.71698 33.6295 10.1919L38.607 9.71848C38.432 7.87834 38.0713 6.39563 37.2746 5.09574L33.0116 7.70855ZM33.6295 10.1917C33.7751 11.7236 33.7792 13.7349 33.7792 16.7791H38.7792C38.7792 13.8328 38.7804 11.5422 38.607 9.71864L33.6295 10.1917ZM31.2917 5.98862C31.9927 6.41816 32.582 7.00744 33.0114 7.70829L37.2747 5.096C36.4329 3.72219 35.2779 2.56718 33.9041 1.72535L31.2917 5.98862ZM39.5947 3.67425C38.5286 1.93439 37.0658 0.471571 35.3259 -0.594602L32.7134 3.66861C33.7805 4.3225 34.6777 5.21965 35.3315 6.28667L39.5947 3.67425ZM16.7791 -2.5C13.8844 -2.5 11.4431 -2.50406 9.46098 -2.3156L9.93426 2.66195C11.625 2.50119 13.7887 2.5 16.7791 2.5V-2.5ZM9.46098 -2.3156C7.42112 -2.12165 5.47312 -1.69697 3.67421 -0.594597L6.2867 3.6686C7.16817 3.12844 8.26076 2.82107 9.93425 2.66195L9.46098 -2.3156ZM7.70839 5.98859C8.09025 5.75458 8.71704 5.51089 10.1918 5.37067L9.71853 0.393114C7.87828 0.568086 6.39569 0.928874 5.09591 1.72538L7.70839 5.98859ZM10.1918 5.37067C11.7236 5.22502 13.7348 5.22094 16.7791 5.22094V0.220937C13.8328 0.220937 11.5422 0.21972 9.71853 0.393114L10.1918 5.37067ZM5.22094 16.7791C5.22094 13.7348 5.22502 11.7236 5.37067 10.1918L0.393114 9.71853C0.21972 11.5422 0.220937 13.8328 0.220937 16.7791H5.22094ZM5.37067 10.1918C5.51089 8.71704 5.75458 8.09025 5.98859 7.70839L1.72538 5.09591C0.928874 6.39569 0.568086 7.87828 0.393114 9.71853L5.37067 10.1918ZM-0.594597 3.67421C-1.69697 5.47312 -2.12165 7.42112 -2.3156 9.46098L2.66195 9.93425C2.82107 8.26076 3.12844 7.16817 3.6686 6.2867L-0.594597 3.67421ZM-2.3156 9.46098C-2.50406 11.4431 -2.5 13.8844 -2.5 16.7791H2.5C2.5 13.7887 2.50119 11.625 2.66195 9.93426L-2.3156 9.46098ZM3.67421 -0.594595C1.93438 0.471577 0.471577 1.93438 -0.594595 3.67421L3.6686 6.28671C4.3225 5.21965 5.21965 4.3225 6.28671 3.6686L3.67421 -0.594595ZM5.98858 7.7084C6.41812 7.00745 7.00745 6.41812 7.7084 5.98858L5.09589 1.72539C3.72218 2.56721 2.56721 3.72218 1.72539 5.09589L5.98858 7.7084ZM19.8676 32.9013C19.5225 32.3182 19.1314 31.6494 18.7308 31.0996L14.69 34.0444C14.918 34.3573 15.1734 34.7867 15.5648 35.4479L19.8676 32.9013ZM18.7303 31.099C18.282 30.4841 17.6612 29.7831 16.7299 29.2414L14.2157 33.5633C14.3378 33.6343 14.4763 33.7514 14.6904 34.045L18.7303 31.099ZM12.8505 35.917C12.794 35.8843 12.7301 35.843 12.6646 35.7933C12.6014 35.7453 12.5524 35.7014 12.5176 35.6674C12.4537 35.6051 12.4434 35.5817 12.4913 35.6474L16.5315 32.7018C16.2119 32.2635 15.8527 31.8782 15.3592 31.592L12.8505 35.917ZM12.4907 35.6467C12.6242 35.8299 12.8038 36.1252 13.2233 36.8339L17.5262 34.2874C17.1568 33.6632 16.8389 33.1237 16.532 32.7025L12.4907 35.6467ZM11.7958 36.0421C12.6404 36.0567 13.0082 36.067 13.2504 36.0937L13.7989 31.1239C13.2719 31.0658 12.6308 31.0558 11.8823 31.0428L11.7958 36.0421ZM13.2487 36.0936C13.3387 36.1035 13.3194 36.1073 13.2373 36.0841C13.1924 36.0714 13.1298 36.0509 13.0552 36.0193C12.9775 35.9864 12.9067 35.9498 12.8457 35.9143L15.364 31.5947C14.8672 31.3051 14.3462 31.1847 13.8006 31.1241L13.2487 36.0936ZM16.7299 29.2414C15.7858 28.6922 14.8535 28.5031 14.0993 28.4196L13.5489 33.3892C13.9248 33.4308 14.0977 33.4946 14.2158 33.5633L16.7299 29.2414ZM14.0988 28.4195C13.4171 28.3442 12.6302 28.3345 11.9291 28.3224L11.8428 33.3217C12.6337 33.3353 13.1516 33.3453 13.5494 33.3893L14.0988 28.4195ZM25.7769 36.8338C26.1964 36.1249 26.3758 35.8299 26.5091 35.6469L22.4681 32.7023C22.161 33.1237 21.843 33.6635 21.4738 34.2875L25.7769 36.8338ZM26.5089 35.6471C26.5568 35.5815 26.5463 35.605 26.4825 35.6673C26.4476 35.7013 26.3986 35.7453 26.3354 35.7933C26.2699 35.843 26.2061 35.8842 26.1497 35.9169L23.6406 31.5921C23.1472 31.8783 22.788 32.2635 22.4683 32.7021L26.5089 35.6471ZM22.27 29.2415C21.3391 29.783 20.7181 30.4839 20.2694 31.0995L24.3101 34.0445C24.5235 33.7517 24.6621 33.6344 24.7844 33.5632L22.27 29.2415ZM20.2693 31.0996C19.8688 31.6492 19.4776 32.3181 19.1325 32.9008L23.4349 35.4484C23.8267 34.7867 24.082 34.3575 24.3101 34.0444L20.2693 31.0996ZM27.071 28.3224C26.3698 28.3345 25.583 28.3442 24.9012 28.4195L25.4506 33.3893C25.8485 33.3453 26.3663 33.3353 27.1573 33.3217L27.071 28.3224ZM24.9007 28.4196C24.1464 28.5031 23.2143 28.6922 22.2703 29.2413L24.7841 33.5634C24.9024 33.4946 25.0753 33.4308 25.4511 33.3892L24.9007 28.4196ZM26.153 35.915C26.0924 35.9503 26.0219 35.9867 25.9443 36.0195C25.87 36.051 25.8075 36.0714 25.7626 36.0841C25.6807 36.1073 25.6614 36.1035 25.7513 36.0936L25.1995 31.1241C24.6534 31.1847 24.1333 31.3052 23.6372 31.594L26.153 35.915ZM25.7497 36.0937C25.9918 36.067 26.3596 36.0567 27.2042 36.0421L27.1177 31.0428C26.3692 31.0558 25.7281 31.0658 25.2011 31.1239L25.7497 36.0937Z" fill="#2F61BF" mask="url(#path-2-inside-1_222_15825)"/>
<path d="M12.2441 14.0581H26.7558H12.2441Z" fill="#2F61BF"/>
<path d="M12.2441 14.0581H26.7558" stroke="#2F61BF" stroke-width="2.5" stroke-linecap="round"/>
<path d="M12.2441 20.407H22.2209H12.2441Z" fill="#2F61BF"/>
<path d="M12.2441 20.407H22.2209" stroke="#2F61BF" stroke-width="2.5" stroke-linecap="round"/>
</svg>
